<?xml version="1.0" encoding="utf-8"?>
<!-- Generator: Adobe Illustrator 16.0.0, SVG Export Plug-In . SVG Version: 6.00 Build 0)  -->
<!DOCTYPE svg PUBLIC "-//W3C//DTD SVG 1.1//EN" "http://www.w3.org/Graphics/SVG/1.1/DTD/svg11.dtd">
<svg version="1.1" id="Layer_1" xmlns="http://www.w3.org/2000/svg" xmlns:xlink="http://www.w3.org/1999/xlink" x="0px" y="0px"
	 width="100px" height="100px" viewBox="0 0 100 100" enable-background="new 0 0 100 100" xml:space="preserve">
<g>
	<path fill="#FFFFFF" d="M50,1.467c-27.062,0-49,21.938-49,49c0,27.061,21.938,48.999,49,48.999c27.063,0,49-21.938,49-48.999
		C99,23.406,77.063,1.467,50,1.467z M37.358,62.404c-0.206-0.259-0.601-0.526-1.187-0.796c-1.192-0.55-1.998-0.985-2.418-1.311
		c-0.421-0.321-0.735-0.686-0.944-1.089c-0.207-0.403-0.312-0.834-0.312-1.287c0-0.758,0.275-1.404,0.827-1.942
		s1.247-0.827,2.088-0.867v-0.75h1.412v0.846c0.486,0.117,0.897,0.271,1.235,0.469c0.338,0.194,0.738,0.523,1.198,0.989
		l-1.449,1.412c-0.662-0.681-1.314-1.021-1.96-1.021c-0.382,0-0.69,0.101-0.927,0.304c-0.239,0.203-0.358,0.438-0.358,0.703
		c0,0.225,0.105,0.445,0.315,0.669c0.205,0.225,0.621,0.464,1.246,0.721c1.112,0.46,1.873,0.854,2.285,1.179
		c0.41,0.325,0.725,0.715,0.946,1.171c0.22,0.458,0.331,0.966,0.331,1.532s-0.119,1.091-0.353,1.57
		c-0.235,0.482-0.538,0.859-0.91,1.143c-0.371,0.279-0.904,0.492-1.6,0.639v2.005h-1.412V66.73
		c-0.657-0.073-1.214-0.239-1.675-0.494c-0.632-0.352-1.217-0.815-1.758-1.398l1.428-1.464c0.917,0.977,1.803,1.464,2.658,1.464
		c0.436,0,0.811-0.152,1.124-0.453c0.313-0.302,0.469-0.661,0.469-1.071C37.658,62.969,37.558,62.667,37.358,62.404z M41.939,44.724
		c0.018-0.134,0.045-0.242,0.083-0.324c0.036-0.083,0.083-0.141,0.138-0.173s0.121-0.048,0.193-0.048
		c0.129,0,0.311,0.079,0.545,0.235c0.235,0.157,0.537,0.327,0.904,0.509c0.369,0.186,0.813,0.356,1.332,0.518s1.12,0.242,1.8,0.242
		c0.515,0,0.986-0.069,1.415-0.208c0.427-0.138,0.795-0.333,1.104-0.585c0.307-0.253,0.544-0.563,0.71-0.932
		c0.166-0.368,0.248-0.787,0.248-1.255c0-0.506-0.114-0.939-0.344-1.297c-0.231-0.358-0.534-0.673-0.911-0.945
		c-0.377-0.271-0.806-0.519-1.289-0.745c-0.483-0.225-0.978-0.455-1.483-0.69c-0.506-0.234-0.998-0.493-1.477-0.779
		c-0.478-0.285-0.906-0.621-1.282-1.006c-0.377-0.387-0.684-0.839-0.917-1.36c-0.234-0.52-0.353-1.143-0.353-1.87
		c0-0.745,0.135-1.409,0.408-1.993c0.271-0.583,0.648-1.073,1.131-1.469c0.482-0.396,1.058-0.697,1.724-0.904
		c0.667-0.206,1.387-0.31,2.159-0.31c0.396,0,0.793,0.035,1.194,0.104c0.399,0.067,0.776,0.16,1.131,0.275
		c0.354,0.116,0.669,0.244,0.945,0.387c0.275,0.142,0.457,0.257,0.544,0.344c0.088,0.087,0.146,0.157,0.174,0.207
		c0.026,0.051,0.05,0.115,0.069,0.193c0.018,0.078,0.031,0.173,0.041,0.283c0.008,0.11,0.014,0.253,0.014,0.428
		c0,0.166-0.007,0.312-0.021,0.442c-0.014,0.128-0.033,0.237-0.062,0.323c-0.028,0.087-0.067,0.153-0.118,0.194
		s-0.108,0.062-0.172,0.062c-0.102,0-0.261-0.064-0.476-0.194c-0.217-0.128-0.482-0.273-0.793-0.435
		c-0.313-0.16-0.684-0.307-1.111-0.441c-0.429-0.133-0.909-0.201-1.442-0.201c-0.497,0-0.93,0.067-1.297,0.201
		c-0.369,0.134-0.672,0.311-0.91,0.531c-0.24,0.221-0.419,0.483-0.539,0.786c-0.12,0.303-0.179,0.626-0.179,0.966
		c0,0.496,0.114,0.924,0.345,1.283c0.229,0.357,0.535,0.675,0.917,0.951c0.381,0.276,0.816,0.53,1.303,0.759
		c0.488,0.23,0.984,0.462,1.49,0.697c0.506,0.234,1.002,0.492,1.491,0.772c0.486,0.28,0.921,0.612,1.302,0.994
		c0.383,0.381,0.69,0.831,0.925,1.351c0.234,0.52,0.352,1.135,0.352,1.842c0,0.837-0.153,1.583-0.462,2.235
		c-0.307,0.653-0.735,1.207-1.282,1.662c-0.548,0.455-1.19,0.798-1.932,1.028c-0.741,0.229-1.539,0.345-2.394,0.345
		c-0.597,0-1.152-0.051-1.663-0.152c-0.51-0.101-0.965-0.225-1.366-0.373c-0.4-0.147-0.735-0.298-1.006-0.455
		c-0.272-0.157-0.46-0.289-0.566-0.401c-0.105-0.11-0.184-0.25-0.234-0.42c-0.05-0.17-0.076-0.398-0.076-0.683
		C41.912,45.026,41.92,44.857,41.939,44.724z M40.077,31.073c-0.019,0.128-0.051,0.233-0.097,0.31
		c-0.046,0.079-0.099,0.136-0.159,0.173c-0.06,0.037-0.123,0.055-0.186,0.055h-6.54v6.07h6.181c0.064,0,0.126,0.016,0.186,0.047
		c0.06,0.033,0.113,0.086,0.159,0.16c0.046,0.073,0.078,0.173,0.097,0.296c0.018,0.125,0.027,0.283,0.027,0.476
		c0,0.176-0.009,0.324-0.027,0.449c-0.019,0.125-0.051,0.225-0.097,0.303c-0.045,0.078-0.099,0.139-0.159,0.18
		c-0.059,0.041-0.122,0.063-0.186,0.063h-6.181v7.436c0,0.064-0.019,0.126-0.055,0.186c-0.037,0.061-0.102,0.105-0.193,0.139
		c-0.092,0.032-0.212,0.06-0.359,0.083c-0.147,0.023-0.339,0.035-0.58,0.035c-0.221,0-0.409-0.012-0.564-0.035
		c-0.158-0.023-0.282-0.05-0.374-0.083c-0.092-0.033-0.155-0.078-0.193-0.139c-0.037-0.059-0.055-0.121-0.055-0.186V30.563
		c0-0.359,0.095-0.609,0.282-0.752c0.189-0.143,0.389-0.214,0.601-0.214h8.03c0.063,0,0.125,0.018,0.186,0.055
		c0.06,0.037,0.113,0.096,0.159,0.18c0.045,0.083,0.078,0.191,0.097,0.324c0.018,0.133,0.027,0.287,0.027,0.462
		S40.095,30.944,40.077,31.073z M45.681,56.805c0-0.101,0.022-0.143,0.132-0.143c0.721,0.013,1.441-0.014,2.161,0.017
		c1.28,0.056,2.433,0.479,3.478,1.213c0.31,0.215,0.599,0.458,0.876,0.715c0.072,0.064,0.095,0.103,0.02,0.187
		c-0.516,0.597-0.975,1.239-1.452,1.868c-0.084,0.11-0.125,0.112-0.223,0.016c-0.609-0.584-1.285-1.061-2.126-1.259
		c-0.307-0.072-0.619-0.103-0.934-0.103c-0.588-0.004-1.178-0.006-1.768,0c-0.126,0.002-0.168-0.03-0.166-0.161
		c0.009-0.39,0.003-0.776,0.003-1.166C45.683,57.592,45.685,57.198,45.681,56.805z M52.556,65.704
		c-0.957,0.905-2.028,1.614-3.319,1.952c-0.472,0.124-0.956,0.174-1.442,0.181c-0.646,0.01-1.293,0-1.94,0.006
		c-0.118,0-0.156-0.026-0.155-0.148c0.006-0.785,0.006-1.571,0-2.356c-0.001-0.124,0.041-0.145,0.156-0.145
		c0.704-0.006,1.407,0.022,2.111-0.016c0.882-0.051,1.622-0.44,2.294-0.979c0.765-0.614,1.364-1.384,1.962-2.15
		c0.691-0.888,1.36-1.798,2.099-2.649c0.951-1.101,2.056-2,3.43-2.526c0.724-0.279,1.479-0.382,2.252-0.365
		c0.146,0.002,0.288-0.006,0.432,0.002c0.119,0.006,0.156-0.032,0.154-0.154c-0.005-0.629-0.003-1.258-0.001-1.887
		c0-0.061-0.022-0.126,0.031-0.194c0.353,0.303,0.704,0.601,1.055,0.901c0.926,0.794,1.852,1.587,2.777,2.376
		c0.069,0.061,0.125,0.093,0.016,0.186c-1.251,1.063-2.496,2.133-3.744,3.199c-0.033,0.029-0.07,0.054-0.108,0.082
		c-0.047-0.064-0.026-0.131-0.026-0.191c-0.003-0.508,0-1.016-0.003-1.525c0-0.061,0.035-0.147-0.081-0.149
		c-0.707-0.016-1.406-0.002-2.068,0.302c-0.759,0.35-1.375,0.88-1.934,1.482c-0.738,0.801-1.369,1.688-2.04,2.542
		C53.858,64.248,53.269,65.031,52.556,65.704z M64.471,67.009c-1.239,1.051-2.471,2.109-3.706,3.165
		c-0.038,0.032-0.078,0.063-0.12,0.095c-0.04-0.059-0.022-0.118-0.022-0.173c0-0.641-0.005-1.281,0.003-1.922
		c0.001-0.133-0.039-0.162-0.165-0.16c-0.705,0.02-1.405-0.007-2.094-0.184c-1.056-0.274-1.976-0.799-2.797-1.506
		c-0.16-0.139-0.313-0.285-0.475-0.424c-0.063-0.056-0.069-0.101-0.012-0.171c0.514-0.62,1.005-1.261,1.489-1.905
		c0.078-0.104,0.117-0.087,0.198-0.004c0.616,0.637,1.311,1.152,2.18,1.401c0.516,0.148,1.042,0.129,1.567,0.133
		c0.12,0,0.104-0.078,0.104-0.15c0-0.505,0-1.009,0-1.511c0-0.054-0.017-0.114,0.03-0.183c0.27,0.23,0.539,0.462,0.805,0.688
		c1.005,0.859,2.007,1.722,3.016,2.575C64.587,66.87,64.583,66.913,64.471,67.009z M69.464,47.379
		c-0.076,0.064-0.197,0.105-0.368,0.125c-0.169,0.018-0.397,0.028-0.682,0.028c-0.286,0-0.513-0.007-0.683-0.021
		c-0.171-0.014-0.301-0.037-0.387-0.069c-0.088-0.031-0.151-0.076-0.194-0.131c-0.04-0.055-0.08-0.125-0.116-0.207l-1.532-4.346
		H58.08l-1.462,4.291c-0.027,0.082-0.064,0.154-0.11,0.214c-0.046,0.059-0.113,0.109-0.2,0.151c-0.087,0.042-0.212,0.07-0.372,0.089
		c-0.161,0.018-0.37,0.028-0.628,0.028c-0.268,0-0.485-0.012-0.656-0.035c-0.168-0.023-0.288-0.066-0.357-0.131
		c-0.069-0.064-0.102-0.158-0.097-0.283c0.004-0.125,0.042-0.288,0.117-0.49l5.987-16.583c0.036-0.101,0.085-0.183,0.145-0.248
		c0.061-0.064,0.147-0.115,0.263-0.152c0.114-0.037,0.263-0.062,0.441-0.076c0.18-0.013,0.407-0.02,0.682-0.02
		c0.295,0,0.539,0.007,0.732,0.02c0.192,0.014,0.35,0.039,0.469,0.076c0.119,0.037,0.212,0.09,0.275,0.159
		c0.064,0.068,0.115,0.154,0.152,0.255l5.987,16.583c0.073,0.203,0.112,0.365,0.117,0.49S69.536,47.316,69.464,47.379z"/>
	<path fill="#5D5E5E" d="M39.98,29.832c-0.046-0.083-0.099-0.143-0.159-0.18c-0.06-0.037-0.123-0.055-0.186-0.055h-8.03
		c-0.212,0-0.412,0.071-0.601,0.214c-0.188,0.143-0.282,0.393-0.282,0.752V47.09c0,0.064,0.018,0.126,0.055,0.186
		c0.038,0.061,0.101,0.105,0.193,0.139c0.091,0.032,0.216,0.06,0.374,0.083c0.156,0.023,0.344,0.035,0.564,0.035
		c0.24,0,0.433-0.012,0.58-0.035c0.147-0.023,0.267-0.05,0.359-0.083c0.091-0.033,0.156-0.078,0.193-0.139
		c0.036-0.059,0.055-0.121,0.055-0.186v-7.436h6.181c0.064,0,0.126-0.021,0.186-0.063c0.06-0.041,0.113-0.102,0.159-0.18
		c0.046-0.078,0.078-0.179,0.097-0.303c0.018-0.125,0.027-0.273,0.027-0.449c0-0.193-0.009-0.352-0.027-0.476
		c-0.019-0.124-0.051-0.223-0.097-0.296c-0.045-0.073-0.099-0.126-0.159-0.16c-0.059-0.031-0.122-0.047-0.186-0.047h-6.181v-6.07
		h6.54c0.063,0,0.125-0.018,0.186-0.055c0.06-0.037,0.113-0.094,0.159-0.173c0.045-0.077,0.078-0.182,0.097-0.31
		c0.018-0.128,0.027-0.28,0.027-0.455s-0.009-0.329-0.027-0.462C40.058,30.022,40.026,29.914,39.98,29.832z"/>
	<path fill="#5D5E5E" d="M61.457,64.199c-0.266-0.227-0.535-0.458-0.805-0.688c-0.047,0.068-0.03,0.129-0.03,0.183
		c0,0.502,0,1.006,0,1.511c0,0.072,0.016,0.15-0.104,0.15c-0.525-0.004-1.052,0.016-1.567-0.133
		c-0.869-0.249-1.563-0.765-2.18-1.401c-0.081-0.083-0.12-0.101-0.198,0.004c-0.484,0.645-0.976,1.285-1.489,1.905
		c-0.058,0.07-0.052,0.115,0.012,0.171c0.161,0.139,0.314,0.285,0.475,0.424c0.821,0.707,1.741,1.231,2.797,1.506
		c0.688,0.177,1.389,0.203,2.094,0.184c0.126-0.002,0.166,0.027,0.165,0.16c-0.008,0.641-0.003,1.281-0.003,1.922
		c0,0.055-0.018,0.114,0.022,0.173c0.042-0.032,0.082-0.063,0.12-0.095c1.235-1.056,2.467-2.114,3.706-3.165
		c0.112-0.096,0.116-0.139,0.002-0.234C63.464,65.921,62.462,65.059,61.457,64.199z"/>
	<path fill="#5D5E5E" d="M36.065,64.838c-0.855,0-1.741-0.487-2.658-1.464l-1.428,1.464c0.541,0.583,1.126,1.047,1.758,1.398
		c0.461,0.255,1.018,0.421,1.675,0.494v1.962h1.412v-2.005c0.696-0.146,1.229-0.359,1.6-0.639c0.372-0.283,0.675-0.66,0.91-1.143
		c0.234-0.479,0.353-1.004,0.353-1.57s-0.111-1.074-0.331-1.532c-0.221-0.456-0.536-0.846-0.946-1.171
		c-0.412-0.325-1.173-0.719-2.285-1.179c-0.625-0.257-1.041-0.496-1.246-0.721c-0.21-0.224-0.315-0.444-0.315-0.669
		c0-0.266,0.119-0.5,0.358-0.703c0.237-0.203,0.545-0.304,0.927-0.304c0.646,0,1.298,0.34,1.96,1.021l1.449-1.412
		c-0.46-0.466-0.86-0.795-1.198-0.989c-0.337-0.197-0.749-0.352-1.235-0.469v-0.846h-1.412v0.75
		c-0.841,0.04-1.537,0.329-2.088,0.867s-0.827,1.185-0.827,1.942c0,0.453,0.104,0.884,0.312,1.287
		c0.208,0.403,0.523,0.768,0.944,1.089c0.42,0.325,1.226,0.761,2.418,1.311c0.586,0.27,0.981,0.537,1.187,0.796
		c0.2,0.263,0.3,0.564,0.3,0.909c0,0.41-0.156,0.77-0.469,1.071C36.876,64.686,36.501,64.838,36.065,64.838z"/>
	<path fill="#5D5E5E" d="M42.222,46.331c0.106,0.112,0.294,0.244,0.566,0.401c0.271,0.157,0.606,0.307,1.006,0.455
		c0.4,0.148,0.855,0.271,1.366,0.373c0.511,0.101,1.065,0.152,1.663,0.152c0.855,0,1.653-0.116,2.394-0.345
		c0.741-0.229,1.384-0.573,1.932-1.028c0.547-0.455,0.976-1.009,1.282-1.662c0.309-0.653,0.462-1.398,0.462-2.235
		c0-0.708-0.117-1.322-0.352-1.842c-0.234-0.52-0.542-0.969-0.925-1.351c-0.381-0.382-0.816-0.714-1.302-0.994
		c-0.489-0.28-0.985-0.539-1.491-0.772c-0.506-0.235-1.002-0.467-1.49-0.697c-0.487-0.229-0.922-0.483-1.303-0.759
		c-0.382-0.276-0.688-0.593-0.917-0.951c-0.231-0.359-0.345-0.787-0.345-1.283c0-0.34,0.059-0.663,0.179-0.966
		c0.12-0.303,0.299-0.565,0.539-0.786c0.238-0.221,0.541-0.397,0.91-0.531c0.368-0.133,0.8-0.201,1.297-0.201
		c0.533,0,1.013,0.067,1.442,0.201c0.427,0.134,0.797,0.281,1.111,0.441c0.311,0.162,0.576,0.306,0.793,0.435
		c0.215,0.13,0.374,0.194,0.476,0.194c0.063,0,0.121-0.021,0.172-0.062s0.09-0.106,0.118-0.194c0.028-0.086,0.048-0.195,0.062-0.323
		c0.015-0.13,0.021-0.276,0.021-0.442c0-0.175-0.006-0.317-0.014-0.428c-0.01-0.11-0.023-0.205-0.041-0.283
		c-0.02-0.078-0.043-0.142-0.069-0.193c-0.028-0.05-0.086-0.12-0.174-0.207c-0.087-0.087-0.269-0.203-0.544-0.344
		c-0.276-0.143-0.591-0.271-0.945-0.387c-0.354-0.115-0.731-0.208-1.131-0.275c-0.401-0.069-0.798-0.104-1.194-0.104
		c-0.772,0-1.492,0.104-2.159,0.31c-0.667,0.207-1.242,0.508-1.724,0.904c-0.483,0.396-0.86,0.886-1.131,1.469
		c-0.272,0.584-0.408,1.248-0.408,1.993c0,0.727,0.118,1.35,0.353,1.87c0.234,0.521,0.54,0.973,0.917,1.36
		c0.376,0.385,0.804,0.721,1.282,1.006c0.479,0.286,0.971,0.545,1.477,0.779c0.505,0.235,1,0.465,1.483,0.69
		c0.483,0.226,0.912,0.474,1.289,0.745c0.377,0.272,0.68,0.586,0.911,0.945c0.23,0.358,0.344,0.792,0.344,1.297
		c0,0.469-0.083,0.888-0.248,1.255c-0.166,0.368-0.403,0.679-0.71,0.932c-0.308,0.253-0.677,0.448-1.104,0.585
		c-0.429,0.139-0.9,0.208-1.415,0.208c-0.681,0-1.281-0.081-1.8-0.242s-0.963-0.333-1.332-0.518
		c-0.367-0.183-0.668-0.353-0.904-0.509c-0.234-0.156-0.416-0.235-0.545-0.235c-0.072,0-0.138,0.016-0.193,0.048
		s-0.102,0.089-0.138,0.173c-0.037,0.082-0.064,0.19-0.083,0.324c-0.019,0.133-0.028,0.302-0.028,0.503
		c0,0.285,0.026,0.513,0.076,0.683C42.038,46.081,42.116,46.22,42.222,46.331z"/>
	<path fill="#5D5E5E" d="M45.846,59.315c0.589-0.006,1.179-0.004,1.768,0c0.315,0,0.626,0.03,0.934,0.103
		c0.841,0.198,1.517,0.675,2.126,1.259c0.098,0.097,0.139,0.095,0.223-0.016c0.478-0.629,0.937-1.271,1.452-1.868
		c0.075-0.084,0.053-0.122-0.02-0.187c-0.277-0.257-0.566-0.5-0.876-0.715c-1.044-0.733-2.197-1.157-3.478-1.213
		c-0.72-0.03-1.44-0.004-2.161-0.017c-0.11,0-0.132,0.042-0.132,0.143c0.004,0.394,0.002,0.787,0.002,1.184
		c0,0.39,0.006,0.776-0.003,1.166C45.677,59.285,45.719,59.317,45.846,59.315z"/>
	<path fill="#5D5E5E" d="M58.437,59.454c0.662-0.304,1.361-0.317,2.068-0.302c0.116,0.002,0.081,0.089,0.081,0.149
		c0.003,0.51,0,1.018,0.003,1.525c0,0.061-0.021,0.127,0.026,0.191c0.038-0.028,0.075-0.053,0.108-0.082
		c1.248-1.066,2.493-2.136,3.744-3.199c0.109-0.093,0.054-0.125-0.016-0.186c-0.926-0.789-1.852-1.582-2.777-2.376
		c-0.351-0.301-0.702-0.599-1.055-0.901c-0.054,0.068-0.031,0.134-0.031,0.194c-0.002,0.629-0.004,1.258,0.001,1.887
		c0.002,0.122-0.035,0.16-0.154,0.154c-0.144-0.008-0.286,0-0.432-0.002c-0.772-0.017-1.528,0.086-2.252,0.365
		c-1.374,0.526-2.479,1.426-3.43,2.526c-0.738,0.852-1.407,1.762-2.099,2.649c-0.599,0.767-1.197,1.536-1.962,2.15
		c-0.673,0.538-1.412,0.928-2.294,0.979c-0.704,0.038-1.407,0.01-2.111,0.016c-0.115,0-0.157,0.021-0.156,0.145
		c0.006,0.785,0.006,1.571,0,2.356c-0.001,0.122,0.037,0.148,0.155,0.148c0.646-0.006,1.293,0.004,1.94-0.006
		c0.486-0.007,0.97-0.057,1.442-0.181c1.291-0.338,2.362-1.047,3.319-1.952c0.713-0.673,1.303-1.456,1.907-2.226
		c0.671-0.854,1.302-1.741,2.04-2.542C57.062,60.334,57.678,59.804,58.437,59.454z"/>
	<polygon fill="#FFFFFF" points="61.751,31.969 58.674,40.868 64.883,40.868 61.765,31.969 	"/>
	<path fill="#5D5E5E" d="M63.461,30.024c-0.037-0.102-0.088-0.187-0.152-0.255c-0.063-0.069-0.156-0.122-0.275-0.159
		c-0.119-0.037-0.276-0.062-0.469-0.076c-0.193-0.013-0.438-0.02-0.732-0.02c-0.274,0-0.502,0.007-0.682,0.02
		c-0.179,0.014-0.327,0.039-0.441,0.076c-0.115,0.037-0.202,0.087-0.263,0.152c-0.06,0.065-0.108,0.147-0.145,0.248l-5.987,16.583
		c-0.075,0.203-0.113,0.366-0.117,0.49c-0.005,0.125,0.027,0.219,0.097,0.283c0.069,0.064,0.189,0.108,0.357,0.131
		c0.171,0.023,0.389,0.035,0.656,0.035c0.258,0,0.467-0.01,0.628-0.028c0.16-0.019,0.285-0.048,0.372-0.089
		c0.087-0.042,0.154-0.092,0.2-0.151c0.046-0.06,0.083-0.132,0.11-0.214l1.462-4.291h7.422l1.532,4.346
		c0.036,0.082,0.076,0.151,0.116,0.207c0.043,0.055,0.106,0.1,0.194,0.131c0.086,0.032,0.216,0.055,0.387,0.069
		c0.17,0.014,0.396,0.021,0.683,0.021c0.284,0,0.513-0.01,0.682-0.028c0.171-0.019,0.292-0.06,0.368-0.125
		c0.072-0.063,0.106-0.158,0.102-0.282s-0.044-0.287-0.117-0.49L63.461,30.024z M58.674,40.868l3.077-8.899h0.014l3.118,8.899
		H58.674z"/>
</g>
</svg>
