<?xml version="1.0" encoding="utf-8"?>
<!-- Generator: Adobe Illustrator 16.0.0, SVG Export Plug-In . SVG Version: 6.00 Build 0)  -->
<!DOCTYPE svg PUBLIC "-//W3C//DTD SVG 1.1//EN" "http://www.w3.org/Graphics/SVG/1.1/DTD/svg11.dtd">
<svg version="1.1" id="Layer_1" xmlns="http://www.w3.org/2000/svg" xmlns:xlink="http://www.w3.org/1999/xlink" x="0px" y="0px"
	 width="100px" height="100px" viewBox="0 0 100 100" enable-background="new 0 0 100 100" xml:space="preserve">
<g>
	<path fill="#009DDC" d="M50,99C22.981,99,1,77.02,1,50C1,22.981,22.981,1,50,1c27.02,0,49,21.981,49,49C99,77.02,77.02,99,50,99z"
		/>
</g>
<g>
	<g>
		<path fill="#FFFFFF" d="M57.061,48.38c0,5.984,0,11.966,0,17.949c-0.002,0.969-0.342,1.307-1.313,1.307
			c-9.036,0.003-18.072,0.003-27.108,0c-0.93,0-1.279-0.342-1.279-1.256c0-8.532,0.002-17.063-0.006-25.595
			c0-0.453,0.136-0.792,0.457-1.111c3.376-3.36,6.745-6.73,10.106-10.106c0.321-0.322,0.666-0.456,1.115-0.454
			c5.589,0.008,11.178,0.006,16.767,0.006c0.926,0,1.26,0.34,1.262,1.275C57.061,36.389,57.061,42.385,57.061,48.38z M55.073,48.372
			c0-5.626-0.001-11.251,0.007-16.878c0.001-0.314-0.063-0.413-0.398-0.412c-4.838,0.012-9.676,0.012-14.514,0
			c-0.328-0.001-0.405,0.083-0.403,0.406c0.014,2.967,0.009,5.934,0.007,8.901c0,0.775-0.354,1.128-1.125,1.128
			c-2.954,0-5.909,0.007-8.863-0.008c-0.357-0.002-0.447,0.088-0.446,0.445c0.011,7.755,0.011,15.512,0,23.269
			c0,0.36,0.098,0.44,0.45,0.44c8.284-0.011,16.57-0.011,24.854,0c0.364,0.002,0.44-0.101,0.44-0.45
			C55.07,59.6,55.073,53.986,55.073,48.372z M30.817,39.55c0.033,0.011,0.055,0.024,0.076,0.024
			c2.202,0.001,4.403-0.002,6.605,0.009c0.271,0,0.292-0.12,0.291-0.334c-0.005-2.151-0.003-4.304-0.005-6.457
			c0-0.064,0.04-0.151-0.033-0.176C35.438,34.929,33.135,37.232,30.817,39.55z"/>
		<path fill="#FFFFFF" d="M58.324,50.015c0-5.737,0.004-11.474-0.008-17.212c-0.002-0.361,0.098-0.491,0.449-0.437
			c0.133,0.021,0.271,0.002,0.405,0.003c0.748,0.008,1.14,0.397,1.14,1.14c0,2.597,0,5.195,0,7.792c0,8.63,0,17.262,0,25.891
			c0,2.139-1.564,3.694-3.711,3.694c-8.248,0.001-16.497,0.001-24.746,0c-0.9,0-1.243-0.345-1.245-1.255
			c0-0.716,0-0.716,0.705-0.716c8.372,0,16.743-0.001,25.114,0.001c0.549,0,1.049-0.098,1.445-0.52
			c0.332-0.354,0.454-0.767,0.453-1.246c-0.006-5.404-0.004-10.81-0.004-16.213C58.324,50.63,58.324,50.322,58.324,50.015z"/>
		<path fill="#FFFFFF" d="M36.244,61.096c-0.111,0-0.222,0-0.333,0c-0.331,0-0.503-0.158-0.498-0.496
			c0.003-0.197-0.004-0.394,0.001-0.592c0.009-0.349-0.165-0.517-0.506-0.546c-0.652-0.058-1.281-0.222-1.892-0.459
			c-0.325-0.127-0.463-0.332-0.344-0.69c0.096-0.291,0.151-0.597,0.23-0.892c0.108-0.401,0.33-0.514,0.714-0.356
			c0.759,0.313,1.542,0.5,2.367,0.475c0.322-0.012,0.635-0.064,0.926-0.214c0.659-0.339,0.754-1.044,0.204-1.544
			c-0.323-0.297-0.721-0.465-1.129-0.606c-0.522-0.181-1.042-0.366-1.537-0.618c-1.34-0.682-1.906-1.565-1.758-2.938
			c0.142-1.313,0.993-2.061,2.188-2.47c0.608-0.209,0.609-0.203,0.609-0.815c0-0.925,0-0.925,0.922-0.925
			c0.689,0,0.754,0.065,0.754,0.76c0,0.636,0.022,0.656,0.633,0.746c0.462,0.068,0.918,0.164,1.358,0.329
			c0.31,0.115,0.422,0.311,0.333,0.63c-0.082,0.296-0.148,0.598-0.234,0.891c-0.114,0.391-0.302,0.484-0.696,0.346
			c-0.786-0.279-1.583-0.451-2.42-0.297c-0.233,0.043-0.449,0.125-0.625,0.293c-0.352,0.334-0.356,0.799,0.003,1.137
			c0.385,0.363,0.877,0.535,1.357,0.724c0.538,0.212,1.086,0.394,1.593,0.677c1.119,0.623,1.688,1.562,1.585,2.851
			c-0.1,1.246-0.791,2.082-1.913,2.584c-0.112,0.052-0.229,0.09-0.348,0.125c-0.733,0.211-0.692,0.205-0.688,0.938
			c0,0.098,0,0.196,0,0.295c-0.002,0.547-0.12,0.662-0.674,0.664C36.366,61.096,36.305,61.096,36.244,61.096z"/>
		<path fill="#FFFFFF" d="M47.457,35.661c1.342,0,2.683,0.007,4.023-0.007c0.276-0.002,0.362,0.075,0.35,0.352
			c-0.023,0.454-0.016,0.911-0.002,1.365c0.006,0.212-0.071,0.274-0.277,0.274c-2.756-0.005-5.513-0.005-8.269,0
			c-0.211,0.001-0.279-0.07-0.273-0.278c0.012-0.466,0.017-0.935-0.002-1.401c-0.008-0.246,0.079-0.312,0.316-0.31
			C44.7,35.666,46.078,35.661,47.457,35.661z"/>
		<path fill="#FFFFFF" d="M47.427,49.348c-1.341,0-2.682-0.009-4.023,0.006c-0.294,0.004-0.419-0.055-0.398-0.379
			c0.028-0.44,0.015-0.885,0.004-1.327c-0.005-0.199,0.047-0.285,0.266-0.285c2.756,0.006,5.512,0.006,8.27,0
			c0.236-0.001,0.289,0.091,0.283,0.305c-0.015,0.456-0.021,0.911,0.002,1.366c0.015,0.274-0.101,0.32-0.343,0.319
			C50.134,49.343,48.78,49.348,47.427,49.348z"/>
		<path fill="#FFFFFF" d="M47.418,53.266c-1.354,0-2.707-0.009-4.06,0.006c-0.274,0.002-0.367-0.069-0.352-0.351
			c0.023-0.455,0.015-0.911,0.002-1.364c-0.006-0.211,0.066-0.277,0.274-0.277c2.756,0.006,5.513,0.006,8.27,0
			c0.207,0,0.281,0.066,0.275,0.275c-0.013,0.469-0.017,0.938,0,1.402c0.01,0.244-0.072,0.313-0.313,0.313
			C50.15,53.259,48.784,53.266,47.418,53.266z"/>
		<path fill="#FFFFFF" d="M47.377,57.17c-1.341,0-2.68-0.009-4.02,0.007c-0.274,0.003-0.366-0.067-0.351-0.348
			c0.023-0.454,0.013-0.91,0.003-1.365c-0.004-0.194,0.042-0.284,0.264-0.282c2.766,0.006,5.532,0.004,8.299,0
			c0.191,0,0.259,0.063,0.255,0.256c-0.011,0.479-0.019,0.959,0.002,1.438c0.011,0.259-0.097,0.3-0.321,0.299
			C50.131,57.165,48.754,57.17,47.377,57.17z"/>
		<path fill="#FFFFFF" d="M47.418,61.085c-1.352,0-2.704-0.006-4.056,0.006c-0.265,0.002-0.372-0.053-0.356-0.342
			c0.025-0.453,0.012-0.909,0.004-1.363c-0.004-0.19,0.03-0.29,0.258-0.29c2.767,0.008,5.533,0.008,8.298,0
			c0.227,0,0.264,0.098,0.261,0.288c-0.011,0.468-0.017,0.935,0.002,1.4c0.011,0.252-0.084,0.307-0.317,0.305
			C50.148,61.079,48.784,61.085,47.418,61.085z"/>
		<path fill="#FFFFFF" d="M47.452,39.577c1.341,0,2.683,0.006,4.022-0.006c0.271-0.003,0.371,0.062,0.354,0.346
			c-0.022,0.442-0.015,0.885-0.002,1.328c0.005,0.207-0.063,0.276-0.272,0.276c-2.757-0.006-5.513-0.006-8.269,0
			c-0.204,0-0.285-0.056-0.278-0.27c0.013-0.455,0.02-0.912-0.002-1.366c-0.014-0.282,0.114-0.314,0.349-0.313
			C44.721,39.58,46.086,39.577,47.452,39.577z"/>
	</g>
	<g>
		<g>
			<path fill="#FFFFFF" d="M68.458,52.923c-2.31,0-4.188-1.878-4.188-4.188s1.879-4.188,4.188-4.188s4.188,1.879,4.188,4.188
				C72.646,51.045,70.768,52.923,68.458,52.923z"/>
		</g>
		<g>
			<path fill="#009DDC" d="M67.719,50.553L67.719,50.553c-0.082,0-0.162-0.033-0.222-0.092l-1.532-1.532
				c-0.122-0.123-0.122-0.322,0-0.444c0.123-0.123,0.322-0.123,0.445,0l1.309,1.31l2.788-2.788c0.122-0.123,0.321-0.123,0.444,0
				s0.123,0.322,0,0.444l-3.01,3.009C67.883,50.52,67.803,50.553,67.719,50.553z"/>
		</g>
	</g>
	<g>
		<g>
			<path fill="#FFFFFF" d="M68.458,42.441c-2.31,0-4.188-1.879-4.188-4.188c0-2.31,1.879-4.188,4.188-4.188s4.188,1.879,4.188,4.188
				S70.768,42.441,68.458,42.441z"/>
		</g>
		<g>
			<path fill="#009DDC" d="M67.719,40.072L67.719,40.072c-0.082,0-0.162-0.033-0.222-0.092l-1.532-1.532
				c-0.122-0.123-0.122-0.321,0-0.444c0.123-0.123,0.322-0.123,0.445,0l1.309,1.311l2.788-2.788c0.122-0.123,0.321-0.123,0.444,0
				s0.123,0.322,0,0.444l-3.01,3.009C67.883,40.039,67.803,40.072,67.719,40.072z"/>
		</g>
	</g>
	<g>
		<g>
			<path fill="#FFFFFF" d="M68.458,63.404c-2.31,0-4.188-1.879-4.188-4.188c0-2.311,1.879-4.188,4.188-4.188
				s4.188,1.878,4.188,4.188C72.646,61.525,70.768,63.404,68.458,63.404z"/>
		</g>
		<g>
			<path fill="#009DDC" d="M67.719,61.036L67.719,61.036c-0.082,0-0.162-0.033-0.222-0.093l-1.532-1.531
				c-0.122-0.123-0.122-0.321,0-0.444c0.123-0.122,0.322-0.122,0.445,0l1.309,1.312l2.788-2.787c0.122-0.123,0.321-0.123,0.444,0
				c0.123,0.122,0.123,0.32,0,0.443l-3.01,3.01C67.883,61.003,67.803,61.036,67.719,61.036z"/>
		</g>
	</g>
</g>
</svg>
