<?xml version="1.0" encoding="utf-8"?>
<!-- Generator: Adobe Illustrator 16.0.0, SVG Export Plug-In . SVG Version: 6.00 Build 0)  -->
<!DOCTYPE svg PUBLIC "-//W3C//DTD SVG 1.1//EN" "http://www.w3.org/Graphics/SVG/1.1/DTD/svg11.dtd">
<svg version="1.1" id="Layer_1" xmlns="http://www.w3.org/2000/svg" xmlns:xlink="http://www.w3.org/1999/xlink" x="0px" y="0px"
	 width="100px" height="100px" viewBox="0 0 100 100" enable-background="new 0 0 100 100" xml:space="preserve">
<g>
	<path fill="#3C96D2" d="M50,2.829c-26.011,0-47.171,21.161-47.171,47.17c0,26.011,21.16,47.173,47.171,47.173
		c26.01,0,47.172-21.162,47.172-47.173C97.172,23.989,76.01,2.829,50,2.829z M28.459,51.922c-7.008-5.453-8.453-15.155-3.374-22.367
		c4.947-7.023,14.676-8.972,21.943-4.384c7.614,4.808,9.222,14.007,6.296,20.221c-0.57-0.793-1.063-1.612-1.686-2.314
		c-0.891-1.003-2.064-1.462-3.365-0.99c-1.479,0.536-2.835,1.314-3.049,3.108c-0.14,1.156,0.36,2.16,0.92,3.129
		c0.687,1.193,1.375,2.386,2.059,3.57C43.618,55.847,34.962,56.98,28.459,51.922z M77.223,68.621
		c-3.789,2.15-7.57,4.315-11.398,6.503c-1.422-1.332-2.842-2.656-4.252-3.99c-0.541-0.513-1.025-1.089-1.594-1.567
		c-1.559-1.313-3.408-1.945-5.416-2.038c-1.053-0.05-2.117,0.077-3.172,0.182c-1.037,0.103-2.035,0.031-2.961-0.47
		c-1.809-0.98-2.146-3.27-0.668-4.695c1.438-1.385,3.27-1.953,5.166-2.354c0.332-0.069,0.666-0.118,1.094-0.191
		c-0.113-0.218-0.203-0.407-0.309-0.59c-2.221-3.882-4.441-7.762-6.662-11.644c-0.079-0.136-0.159-0.272-0.232-0.413
		c-1.298-2.48-0.178-3.398,1.669-4.237c0.707-0.322,1.413-0.141,1.964,0.341c0.484,0.424,0.928,0.933,1.264,1.479
		c1.025,1.676,1.988,3.391,2.982,5.085c0.18,0.308,0.385,0.603,0.59,0.92c0.264-0.264,0.506-0.495,0.738-0.735
		c0.635-0.66,1.371-0.947,2.264-0.588c0.48,0.193,0.793,0.114,1.145-0.327c1.127-1.423,2.877-1.937,4.623-1.353
		c0.877,0.295,1.658,0.354,2.516-0.1c1.072-0.568,2.137-0.367,3.002,0.467c2.652,2.559,4.354,5.57,4.695,9.337
		c0.146,1.617,0.637,3.224,1.125,4.786c0.576,1.85,1.314,3.647,1.994,5.465C77.498,68.188,77.592,68.411,77.223,68.621z"/>
	<path fill="#3C96D2" d="M45.854,33.313c-3.05,2.662-6.028,5.261-9.217,8.044c-1.263-1.38-2.508-2.743-3.79-4.145
		c-0.51,0.618-0.92,1.116-1.378,1.671c1.822,1.745,3.596,3.441,5.404,5.173c3.323-3.03,6.728-6.132,10.172-9.272
		C46.639,34.284,46.274,33.834,45.854,33.313z"/>
	<path fill="#FFFFFF" d="M46.145,48.324c-0.56-0.969-1.06-1.973-0.92-3.129c0.214-1.793,1.569-2.572,3.049-3.108
		c1.301-0.472,2.475-0.013,3.365,0.99c0.623,0.702,1.115,1.521,1.686,2.314c2.926-6.213,1.318-15.413-6.296-20.221
		c-7.268-4.587-16.996-2.639-21.943,4.384c-5.079,7.212-3.634,16.914,3.374,22.367c6.503,5.059,15.159,3.925,19.744-0.027
		C47.52,50.71,46.831,49.518,46.145,48.324z M36.873,44.057c-1.809-1.732-3.582-3.428-5.404-5.173
		c0.458-0.555,0.868-1.054,1.378-1.671c1.282,1.402,2.527,2.765,3.79,4.145c3.188-2.783,6.167-5.382,9.217-8.044
		c0.421,0.521,0.785,0.971,1.191,1.472L36.873,44.057z"/>
	<path fill="#3C96D2" d="M36.873,44.057l10.172-9.272C43.601,37.924,40.196,41.026,36.873,44.057z"/>
	<path fill="#FFFFFF" d="M75.395,62.428c-0.488-1.563-0.979-3.169-1.125-4.786c-0.342-3.767-2.043-6.778-4.695-9.337
		c-0.865-0.834-1.93-1.035-3.002-0.467c-0.857,0.453-1.639,0.395-2.516,0.1c-1.746-0.584-3.496-0.07-4.623,1.353
		c-0.352,0.441-0.664,0.521-1.145,0.327c-0.893-0.359-1.629-0.072-2.264,0.588c-0.232,0.24-0.475,0.472-0.738,0.735
		c-0.205-0.317-0.41-0.612-0.59-0.92c-0.994-1.694-1.957-3.409-2.982-5.085c-0.336-0.546-0.779-1.054-1.264-1.479
		c-0.551-0.482-1.257-0.663-1.964-0.341c-1.847,0.839-2.967,1.757-1.669,4.237c0.073,0.141,0.153,0.277,0.232,0.413
		c2.221,3.882,4.441,7.762,6.662,11.644c0.105,0.183,0.195,0.372,0.309,0.59c-0.428,0.073-0.762,0.122-1.094,0.191
		c-1.896,0.4-3.729,0.969-5.166,2.354c-1.479,1.426-1.141,3.715,0.668,4.695c0.926,0.501,1.924,0.572,2.961,0.47
		c1.055-0.104,2.119-0.231,3.172-0.182c2.008,0.093,3.857,0.726,5.416,2.038c0.568,0.479,1.053,1.055,1.594,1.567
		c1.41,1.334,2.83,2.658,4.252,3.99c3.828-2.188,7.609-4.353,11.398-6.503c0.369-0.21,0.275-0.434,0.166-0.729
		C76.709,66.075,75.971,64.277,75.395,62.428z"/>
	<path fill="#3C96D2" d="M50,1C22.981,1,1,22.981,1,49.999C1,77.019,22.981,99,50,99c27.02,0,49-21.981,49-49.001
		C99,22.981,77.02,1,50,1z M50,97.172c-26.011,0-47.171-21.162-47.171-47.173c0-26.01,21.16-47.17,47.171-47.17
		c26.01,0,47.172,21.161,47.172,47.17C97.172,76.01,76.01,97.172,50,97.172z"/>
</g>
</svg>
