<?xml version="1.0" encoding="utf-8"?>
<!-- Generator: Adobe Illustrator 16.0.0, SVG Export Plug-In . SVG Version: 6.00 Build 0)  -->
<!DOCTYPE svg PUBLIC "-//W3C//DTD SVG 1.1//EN" "http://www.w3.org/Graphics/SVG/1.1/DTD/svg11.dtd">
<svg version="1.1" id="Layer_1" xmlns="http://www.w3.org/2000/svg" xmlns:xlink="http://www.w3.org/1999/xlink" x="0px" y="0px"
	 width="100px" height="100px" viewBox="0 0 100 100" enable-background="new 0 0 100 100" xml:space="preserve">
<path fill="#009EDD" d="M50,1C22.981,1,1,22.981,1,50c0,27.018,21.981,49,49,49c27.02,0,49-21.982,49-49C99,22.981,77.02,1,50,1z"/>
<g>
	<path fill="#FFFFFF" d="M66.488,28.93c-2.088,2.083-4.176,4.164-6.274,6.235c-0.224,0.221-0.651,0.489-0.879,0.415
		c-4.591-1.501-7.069,1.928-9.673,4.439c-4.35,4.195-8.498,8.628-12.407,13.234c-1.114,1.313-1.088,3.579-1.627,5.397
		c-0.199,0.67-0.36,1.453-0.809,1.933c-2.681,2.854-5.439,5.636-8.507,8.786c-2.163-4.127-1.905-7.896-0.614-11.321
		c6.115-16.223,17.087-27.667,33.94-32.71c2.827-0.847,6.125-0.12,9.207-0.12c0.158,0.296,0.318,0.591,0.479,0.887
		C68.377,27.044,67.434,27.987,66.488,28.93"/>
	<path fill="#FFFFFF" d="M27.651,70.752c3.315-3.365,6.434-6.533,9.544-9.691c0.237,0.035,0.518-0.008,0.655,0.112
		c5.342,4.647,5.342,4.698,0.371,9.655c-0.158,0.156-0.316,0.313-0.475,0.471C32.617,76.418,32.617,76.418,27.651,70.752z"/>
	<path fill="#FFFFFF" d="M71.002,27.76c5.645,4.571,5.65,4.647,0.438,9.853c-0.156,0.158-0.316,0.316-0.477,0.474
		c-4.949,4.949-5.455,4.908-9.822-0.819C64.417,34.107,67.698,30.943,71.002,27.76z"/>
</g>
</svg>
