<?xml version="1.0" encoding="utf-8"?>
<!-- Generator: Adobe Illustrator 16.0.0, SVG Export Plug-In . SVG Version: 6.00 Build 0)  -->
<!DOCTYPE svg PUBLIC "-//W3C//DTD SVG 1.1//EN" "http://www.w3.org/Graphics/SVG/1.1/DTD/svg11.dtd">
<svg version="1.1" id="Layer_1" xmlns="http://www.w3.org/2000/svg" xmlns:xlink="http://www.w3.org/1999/xlink" x="0px" y="0px"
	 width="100px" height="100px" viewBox="0 0 100 100" enable-background="new 0 0 100 100" xml:space="preserve">
<g>
	<path fill="#009EDD" d="M49.698,99c-27.019,0-49-21.982-49-49c0-27.019,21.981-49,49-49c27.019,0,48.999,21.981,48.999,49
		C98.697,77.018,76.717,99,49.698,99z"/>
</g>
<path fill="#FFFFFF" d="M49.701,72.574c12.445,0,22.572-10.125,22.572-22.571c0-12.452-10.127-22.577-22.572-22.577
	S27.122,37.551,27.122,50.003C27.122,62.449,37.256,72.574,49.701,72.574z"/>
<g>
	<path fill="#009EDD" d="M42.254,59.68V39.445h8.709c2.333,0,4.149,0.374,5.448,1.121c1.299,0.748,2.333,1.848,3.104,3.302
		c0.771,1.454,1.155,3.211,1.155,5.271c0,2.015-0.367,3.814-1.101,5.4s-1.803,2.84-3.206,3.76c-1.403,0.921-3.327,1.381-5.77,1.381
		H42.254z M46.465,56.809h3.145c1.641,0,2.896-0.255,3.767-0.766c0.87-0.51,1.559-1.374,2.064-2.591s0.759-2.572,0.759-4.067
		c0-1.431-0.246-2.698-0.738-3.801c-0.492-1.103-1.174-1.939-2.044-2.509c-0.87-0.569-2.34-0.854-4.409-0.854h-2.543V56.809z"/>
</g>
</svg>
