<?xml version="1.0" encoding="utf-8"?>
<!-- Generator: Adobe Illustrator 16.0.0, SVG Export Plug-In . SVG Version: 6.00 Build 0)  -->
<!DOCTYPE svg PUBLIC "-//W3C//DTD SVG 1.1//EN" "http://www.w3.org/Graphics/SVG/1.1/DTD/svg11.dtd">
<svg version="1.1" id="Layer_1" xmlns="http://www.w3.org/2000/svg" xmlns:xlink="http://www.w3.org/1999/xlink" x="0px" y="0px"
	 width="100px" height="100px" viewBox="0 0 100 100" enable-background="new 0 0 100 100" xml:space="preserve">
<g>
	<path fill="#009EDD" d="M49.698,99c-27.019,0-49-21.982-49-49c0-27.019,21.981-49,49-49c27.019,0,48.999,21.981,48.999,49
		C98.697,77.018,76.717,99,49.698,99z"/>
</g>
<path fill="#FFFFFF" d="M49.701,72.574c12.445,0,22.572-10.125,22.572-22.571c0-12.452-10.127-22.577-22.572-22.577
	S27.122,37.551,27.122,50.003C27.122,62.449,37.256,72.574,49.701,72.574z M51.961,56.324c0.02-0.264,0.063-0.475,0.121-0.617
	c0.064-0.146,0.142-0.24,0.223-0.297c0.095-0.049,0.199-0.08,0.326-0.08c0.148,0,0.377,0.092,0.674,0.277
	c0.302,0.178,0.688,0.375,1.15,0.592c0.473,0.217,1.047,0.41,1.699,0.594c0.674,0.18,1.459,0.27,2.361,0.27
	c1.406,0,2.445-0.264,3.135-0.782c0.674-0.526,1.031-1.216,1.031-2.085c0-0.57-0.161-1.047-0.439-1.422
	c-0.305-0.368-0.691-0.697-1.188-0.979c-0.5-0.287-1.045-0.533-1.67-0.756c-0.611-0.219-1.254-0.462-1.897-0.714
	c-0.647-0.255-1.282-0.545-1.897-0.888c-0.623-0.331-1.178-0.747-1.67-1.242c-0.496-0.494-0.889-1.087-1.179-1.79
	c-0.305-0.7-0.438-1.552-0.438-2.546c0-0.904,0.148-1.72,0.447-2.459c0.293-0.738,0.738-1.389,1.305-1.938
	c0.56-0.554,1.254-1.002,2.074-1.345c0.826-0.343,1.754-0.571,2.795-0.689l0.365-3.621c0.012-0.098,0.039-0.186,0.082-0.245
	c0.041-0.063,0.114-0.123,0.237-0.177c0.104-0.058,0.261-0.098,0.457-0.119c0.185-0.023,0.438-0.038,0.755-0.038
	c0.376,0,0.684,0.018,0.93,0.059c0.24,0.032,0.436,0.081,0.563,0.152c0.132,0.06,0.224,0.152,0.258,0.258
	c0.029,0.11,0.05,0.224,0.05,0.363l-0.355,3.401c0.334,0.05,0.689,0.111,1.061,0.195c0.372,0.086,0.725,0.186,1.057,0.306
	c0.315,0.111,0.604,0.229,0.871,0.354c0.266,0.123,0.445,0.243,0.554,0.343c0.099,0.1,0.175,0.21,0.235,0.311
	c0.045,0.1,0.098,0.224,0.121,0.374c0.036,0.147,0.049,0.332,0.063,0.543c0.012,0.211,0.025,0.448,0.025,0.724
	c0,0.376-0.016,0.677-0.035,0.929c-0.017,0.237-0.045,0.414-0.104,0.542c-0.03,0.126-0.094,0.211-0.157,0.255
	c-0.06,0.041-0.133,0.062-0.207,0.062c-0.162,0-0.396-0.079-0.688-0.231c-0.3-0.16-0.665-0.325-1.106-0.507
	c-0.438-0.185-0.949-0.349-1.519-0.507c-0.571-0.155-1.198-0.231-1.875-0.231c-0.624,0-1.169,0.064-1.608,0.185
	c-0.445,0.117-0.8,0.287-1.08,0.498c-0.272,0.214-0.484,0.478-0.615,0.773c-0.123,0.302-0.199,0.633-0.199,0.99
	c0,0.565,0.154,1.04,0.457,1.427c0.289,0.384,0.699,0.712,1.195,0.984c0.498,0.281,1.063,0.534,1.692,0.759
	c0.634,0.231,1.267,0.472,1.925,0.725c0.653,0.256,1.305,0.545,1.938,0.878c0.622,0.322,1.187,0.738,1.685,1.219
	c0.492,0.487,0.889,1.075,1.188,1.763c0.297,0.701,0.441,1.526,0.441,2.502c0,1.028-0.185,1.963-0.554,2.793
	c-0.358,0.822-0.882,1.543-1.547,2.14c-0.679,0.604-1.486,1.084-2.437,1.44c-0.949,0.362-2.004,0.592-3.154,0.688l-0.379,3.854
	c-0.012,0.092-0.037,0.179-0.078,0.256c-0.047,0.066-0.123,0.125-0.237,0.18c-0.108,0.047-0.265,0.086-0.463,0.121
	c-0.198,0.023-0.454,0.035-0.751,0.035c-0.38,0-0.696-0.012-0.926-0.053c-0.242-0.037-0.418-0.088-0.553-0.15
	c-0.129-0.07-0.221-0.156-0.263-0.264c-0.037-0.105-0.055-0.229-0.028-0.359l0.381-3.654c-0.512-0.078-1.002-0.166-1.461-0.277
	c-0.457-0.117-0.869-0.238-1.246-0.383c-0.362-0.137-0.688-0.283-0.957-0.426c-0.268-0.141-0.483-0.279-0.615-0.418
	c-0.133-0.139-0.229-0.342-0.293-0.613c-0.063-0.27-0.088-0.672-0.088-1.197C51.924,56.926,51.937,56.582,51.961,56.324z
	 M34.383,56.324c0.02-0.264,0.063-0.475,0.121-0.617c0.064-0.146,0.142-0.24,0.223-0.297c0.095-0.049,0.199-0.08,0.326-0.08
	c0.148,0,0.377,0.092,0.674,0.277c0.302,0.178,0.688,0.375,1.15,0.592c0.473,0.217,1.047,0.41,1.699,0.594
	c0.674,0.18,1.459,0.27,2.361,0.27c1.406,0,2.445-0.264,3.135-0.782c0.674-0.526,1.031-1.216,1.031-2.085
	c0-0.57-0.161-1.047-0.439-1.422c-0.305-0.368-0.691-0.697-1.188-0.979c-0.5-0.287-1.045-0.533-1.67-0.756
	c-0.611-0.219-1.254-0.462-1.897-0.714c-0.647-0.255-1.282-0.545-1.897-0.888c-0.623-0.331-1.178-0.747-1.67-1.242
	c-0.496-0.494-0.889-1.087-1.179-1.79c-0.305-0.7-0.438-1.552-0.438-2.546c0-0.904,0.148-1.72,0.447-2.459
	c0.293-0.738,0.738-1.389,1.305-1.938c0.56-0.554,1.254-1.002,2.074-1.345c0.826-0.343,1.754-0.571,2.795-0.689l0.365-3.621
	c0.012-0.098,0.039-0.186,0.082-0.245c0.041-0.063,0.114-0.123,0.237-0.177c0.104-0.058,0.261-0.098,0.457-0.119
	c0.185-0.023,0.438-0.038,0.755-0.038c0.376,0,0.684,0.018,0.93,0.059c0.24,0.032,0.436,0.081,0.563,0.152
	c0.132,0.06,0.224,0.152,0.258,0.258c0.029,0.11,0.05,0.224,0.05,0.363l-0.355,3.401c0.334,0.05,0.689,0.111,1.061,0.195
	c0.372,0.086,0.725,0.186,1.057,0.306c0.315,0.111,0.604,0.229,0.871,0.354c0.266,0.123,0.445,0.243,0.554,0.343
	c0.099,0.1,0.175,0.21,0.235,0.311c0.045,0.1,0.098,0.224,0.121,0.374c0.036,0.147,0.049,0.332,0.063,0.543
	c0.012,0.211,0.025,0.448,0.025,0.724c0,0.376-0.016,0.677-0.035,0.929c-0.017,0.237-0.045,0.414-0.104,0.542
	c-0.03,0.126-0.094,0.211-0.157,0.255c-0.06,0.041-0.133,0.062-0.207,0.062c-0.162,0-0.396-0.079-0.688-0.231
	c-0.3-0.16-0.665-0.325-1.106-0.507c-0.438-0.185-0.949-0.349-1.519-0.507c-0.571-0.155-1.198-0.231-1.875-0.231
	c-0.624,0-1.169,0.064-1.608,0.185c-0.445,0.117-0.8,0.287-1.08,0.498c-0.272,0.214-0.484,0.478-0.615,0.773
	c-0.123,0.302-0.199,0.633-0.199,0.99c0,0.565,0.154,1.04,0.457,1.427c0.289,0.384,0.699,0.712,1.195,0.984
	c0.498,0.281,1.063,0.534,1.692,0.759c0.634,0.231,1.267,0.472,1.925,0.725c0.653,0.256,1.305,0.545,1.938,0.878
	c0.622,0.322,1.187,0.738,1.685,1.219c0.492,0.487,0.889,1.075,1.188,1.763C49.855,51.825,50,52.65,50,53.626
	c0,1.028-0.185,1.963-0.554,2.793c-0.358,0.822-0.882,1.543-1.547,2.14c-0.679,0.604-1.486,1.084-2.437,1.44
	c-0.949,0.362-2.004,0.592-3.154,0.688l-0.379,3.854c-0.012,0.092-0.037,0.179-0.078,0.256c-0.047,0.066-0.123,0.125-0.237,0.18
	c-0.108,0.047-0.265,0.086-0.463,0.121c-0.198,0.023-0.454,0.035-0.751,0.035c-0.38,0-0.696-0.012-0.926-0.053
	c-0.242-0.037-0.418-0.088-0.553-0.15c-0.129-0.07-0.221-0.156-0.263-0.264c-0.037-0.105-0.055-0.229-0.028-0.359l0.381-3.654
	c-0.512-0.078-1.002-0.166-1.461-0.277c-0.457-0.117-0.869-0.238-1.246-0.383c-0.362-0.137-0.688-0.283-0.957-0.426
	c-0.268-0.141-0.483-0.279-0.615-0.418c-0.133-0.139-0.229-0.342-0.293-0.613c-0.063-0.27-0.088-0.672-0.088-1.197
	C34.346,56.926,34.358,56.582,34.383,56.324z"/>
</svg>
