<?xml version="1.0" encoding="utf-8"?>
<!-- Generator: Adobe Illustrator 16.0.0, SVG Export Plug-In . SVG Version: 6.00 Build 0)  -->
<!DOCTYPE svg PUBLIC "-//W3C//DTD SVG 1.1//EN" "http://www.w3.org/Graphics/SVG/1.1/DTD/svg11.dtd">
<svg version="1.1" id="Layer_1" xmlns="http://www.w3.org/2000/svg" xmlns:xlink="http://www.w3.org/1999/xlink" x="0px" y="0px"
	 width="100px" height="100px" viewBox="0 0 100 100" enable-background="new 0 0 100 100" xml:space="preserve">
<circle fill="#009DDC" cx="50" cy="50" r="49"/>
<g>
	<path fill="#FFFFFF" d="M40.193,45.196c0,0.079-0.021,0.149-0.06,0.208c-0.039,0.06-0.109,0.108-0.209,0.141
		c-0.099,0.036-0.229,0.066-0.395,0.09c-0.163,0.026-0.364,0.038-0.603,0.038c-0.259,0-0.468-0.012-0.627-0.038
		c-0.158-0.024-0.288-0.054-0.387-0.09c-0.1-0.033-0.17-0.081-0.209-0.141c-0.039-0.059-0.06-0.129-0.06-0.208v-8.558h-8.781v8.558
		c0,0.079-0.021,0.149-0.06,0.208c-0.039,0.06-0.11,0.108-0.209,0.141c-0.099,0.036-0.23,0.066-0.396,0.09
		c-0.163,0.026-0.37,0.038-0.618,0.038c-0.238,0-0.441-0.012-0.611-0.038c-0.17-0.024-0.304-0.054-0.402-0.09
		c-0.099-0.033-0.17-0.081-0.209-0.141c-0.039-0.059-0.06-0.129-0.06-0.208V26.679c0-0.079,0.021-0.148,0.06-0.208
		c0.039-0.06,0.11-0.107,0.209-0.141c0.099-0.036,0.232-0.066,0.402-0.09c0.169-0.025,0.373-0.038,0.611-0.038
		c0.248,0,0.455,0.013,0.618,0.038c0.166,0.024,0.297,0.054,0.396,0.09c0.099,0.034,0.17,0.081,0.209,0.141
		c0.039,0.06,0.06,0.129,0.06,0.208v7.723h8.781v-7.723c0-0.079,0.021-0.148,0.06-0.208c0.039-0.06,0.109-0.107,0.209-0.141
		c0.099-0.036,0.229-0.066,0.387-0.09c0.159-0.025,0.368-0.038,0.627-0.038c0.239,0,0.44,0.013,0.603,0.038
		c0.166,0.024,0.296,0.054,0.395,0.09c0.1,0.034,0.17,0.081,0.209,0.141c0.039,0.06,0.06,0.129,0.06,0.208V45.196z"/>
	<path fill="#FFFFFF" d="M55.685,40.171c0,0.904-0.167,1.709-0.5,2.415c-0.333,0.707-0.795,1.306-1.386,1.796
		c-0.592,0.494-1.288,0.863-2.088,1.111s-1.663,0.374-2.587,0.374c-0.646,0-1.245-0.055-1.795-0.165
		c-0.553-0.109-1.043-0.244-1.478-0.402c-0.43-0.159-0.793-0.322-1.086-0.492c-0.294-0.169-0.497-0.313-0.612-0.432
		c-0.114-0.119-0.198-0.271-0.252-0.454c-0.056-0.184-0.083-0.431-0.083-0.739c0-0.218,0.009-0.4,0.03-0.543
		c0.02-0.145,0.049-0.261,0.088-0.351c0.04-0.089,0.09-0.152,0.149-0.186c0.06-0.035,0.128-0.053,0.209-0.053
		c0.14,0,0.335,0.083,0.589,0.253c0.252,0.169,0.579,0.353,0.976,0.551c0.397,0.2,0.877,0.385,1.44,0.56
		c0.561,0.174,1.209,0.26,1.945,0.26c0.557,0,1.066-0.074,1.527-0.223c0.465-0.149,0.861-0.361,1.193-0.633
		c0.333-0.274,0.589-0.61,0.769-1.008c0.179-0.397,0.269-0.85,0.269-1.356c0-0.546-0.125-1.014-0.373-1.402
		c-0.248-0.388-0.576-0.728-0.984-1.022c-0.407-0.293-0.873-0.561-1.393-0.805c-0.524-0.243-1.058-0.491-1.604-0.746
		c-0.545-0.252-1.079-0.534-1.595-0.842c-0.516-0.308-0.979-0.671-1.386-1.087c-0.408-0.418-0.739-0.907-0.991-1.47
		c-0.254-0.561-0.38-1.235-0.38-2.019c0-0.806,0.146-1.524,0.44-2.155c0.293-0.631,0.7-1.161,1.222-1.588
		c0.521-0.427,1.143-0.752,1.863-0.977c0.72-0.222,1.499-0.335,2.334-0.335c0.427,0,0.857,0.037,1.291,0.113
		c0.431,0.073,0.839,0.173,1.222,0.298c0.383,0.123,0.723,0.262,1.021,0.417c0.298,0.153,0.494,0.278,0.589,0.371
		c0.094,0.095,0.157,0.17,0.187,0.226c0.03,0.054,0.054,0.123,0.074,0.208c0.021,0.084,0.035,0.186,0.044,0.306
		c0.011,0.119,0.016,0.273,0.016,0.462c0,0.179-0.008,0.337-0.021,0.478c-0.017,0.139-0.038,0.255-0.068,0.349
		c-0.029,0.095-0.071,0.166-0.127,0.209c-0.054,0.046-0.116,0.068-0.186,0.068c-0.11,0-0.281-0.069-0.514-0.209
		c-0.234-0.14-0.521-0.295-0.858-0.469c-0.337-0.174-0.738-0.333-1.199-0.476c-0.463-0.146-0.982-0.217-1.559-0.217
		c-0.538,0-1.004,0.072-1.402,0.217c-0.397,0.143-0.726,0.334-0.984,0.573c-0.259,0.239-0.453,0.522-0.581,0.85
		c-0.129,0.327-0.195,0.676-0.195,1.043c0,0.536,0.125,1,0.374,1.386c0.248,0.388,0.579,0.73,0.99,1.029
		c0.414,0.298,0.883,0.572,1.41,0.82s1.065,0.5,1.611,0.752c0.547,0.254,1.083,0.532,1.609,0.834
		c0.528,0.304,0.996,0.662,1.41,1.073c0.411,0.414,0.745,0.899,0.997,1.461C55.558,38.743,55.685,39.405,55.685,40.171z"/>
	<path fill="#FFFFFF" d="M73.574,44.674c0.08,0.218,0.122,0.395,0.126,0.53c0.005,0.133-0.03,0.235-0.111,0.305
		c-0.08,0.069-0.212,0.114-0.396,0.134c-0.184,0.021-0.43,0.03-0.737,0.03s-0.555-0.008-0.737-0.021
		c-0.185-0.017-0.323-0.041-0.417-0.076c-0.096-0.034-0.166-0.082-0.209-0.141c-0.046-0.06-0.089-0.134-0.128-0.223l-1.654-4.696
		H61.29l-1.581,4.636c-0.029,0.09-0.068,0.167-0.119,0.231c-0.051,0.064-0.121,0.12-0.215,0.163
		c-0.095,0.046-0.229,0.079-0.404,0.098c-0.173,0.021-0.399,0.03-0.678,0.03c-0.289,0-0.524-0.012-0.708-0.038
		c-0.184-0.024-0.313-0.071-0.387-0.141c-0.076-0.069-0.11-0.171-0.105-0.306c0.005-0.133,0.047-0.311,0.127-0.529l6.47-17.92
		c0.039-0.109,0.093-0.198,0.157-0.268c0.064-0.07,0.159-0.125,0.282-0.165c0.125-0.039,0.285-0.066,0.478-0.082
		c0.194-0.014,0.44-0.022,0.738-0.022c0.318,0,0.581,0.008,0.79,0.022c0.209,0.016,0.379,0.043,0.507,0.082
		c0.129,0.039,0.229,0.097,0.298,0.172c0.07,0.074,0.126,0.166,0.165,0.276L73.574,44.674z M65.271,28.856h-0.016l-3.324,9.615
		h6.709L65.271,28.856z"/>
</g>
<g>
	<circle fill="#FFFFFF" cx="50" cy="68.082" r="12.645"/>
	<g>
		<path fill="#009DDC" d="M58.469,67.613c0,0.237-0.018,0.44-0.056,0.61c-0.036,0.168-0.087,0.31-0.149,0.421
			c-0.064,0.113-0.14,0.194-0.226,0.245c-0.087,0.048-0.18,0.075-0.282,0.075h-6.152v6.828c0,0.101-0.025,0.184-0.075,0.252
			c-0.049,0.069-0.128,0.131-0.234,0.179c-0.106,0.051-0.245,0.091-0.421,0.121c-0.177,0.033-0.395,0.049-0.657,0.049
			c-0.252,0-0.466-0.016-0.649-0.049c-0.18-0.03-0.323-0.07-0.428-0.121c-0.108-0.048-0.188-0.109-0.236-0.179
			c-0.05-0.068-0.075-0.151-0.075-0.252v-6.828h-6.153c-0.113,0-0.211-0.027-0.292-0.075c-0.081-0.051-0.153-0.132-0.215-0.245
			c-0.064-0.111-0.113-0.253-0.151-0.421c-0.037-0.17-0.056-0.373-0.056-0.61c0-0.226,0.019-0.422,0.056-0.59
			c0.038-0.171,0.087-0.31,0.151-0.423c0.062-0.112,0.134-0.195,0.215-0.243c0.081-0.05,0.171-0.075,0.272-0.075h6.172v-6.829
			c0-0.1,0.024-0.19,0.075-0.271c0.048-0.083,0.128-0.15,0.236-0.208c0.105-0.056,0.248-0.099,0.428-0.131
			c0.183-0.032,0.397-0.047,0.649-0.047c0.262,0,0.48,0.015,0.657,0.047c0.176,0.032,0.314,0.075,0.421,0.131
			c0.106,0.058,0.186,0.125,0.234,0.208c0.05,0.08,0.075,0.171,0.075,0.271v6.829h6.173c0.101,0,0.19,0.025,0.271,0.075
			c0.082,0.048,0.157,0.131,0.226,0.243c0.069,0.113,0.119,0.252,0.149,0.423C58.455,67.191,58.469,67.388,58.469,67.613z"/>
	</g>
</g>
</svg>
