<?xml version="1.0" encoding="utf-8"?>
<!-- Generator: Adobe Illustrator 16.0.0, SVG Export Plug-In . SVG Version: 6.00 Build 0)  -->
<!DOCTYPE svg PUBLIC "-//W3C//DTD SVG 1.1//EN" "http://www.w3.org/Graphics/SVG/1.1/DTD/svg11.dtd">
<svg version="1.1" id="Layer_1" xmlns="http://www.w3.org/2000/svg" xmlns:xlink="http://www.w3.org/1999/xlink" x="0px" y="0px"
	 width="100px" height="100px" viewBox="0 0 100 100" enable-background="new 0 0 100 100" xml:space="preserve">
<path fill="#009EDD" d="M50,1C22.982,1,1,22.981,1,50c0,27.018,21.982,49,49,49c27.018,0,49-21.982,49-49C99,22.981,77.02,1,50,1z"
	/>
<path fill="#FFFFFF" d="M50.157,32.633c6.711,0,13.422-0.001,20.131,0.001c4.328,0,5.886,1.565,5.892,5.956
	c0.01,7.711,0.012,15.424,0,23.135c-0.007,3.967-1.589,5.623-5.554,5.631c-13.78,0.022-27.563,0.015-41.345-0.02
	c-3.603-0.007-5.429-1.824-5.443-5.395c-0.033-7.926-0.032-15.853-0.004-23.777c0.013-3.709,1.807-5.488,5.544-5.504
	c6.926-0.031,13.853-0.009,20.779-0.009C50.157,32.645,50.157,32.639,50.157,32.633z M72.637,36.222c-15.229,0-29.86,0-44.491,0
	c6.972,5.334,14.038,10.26,21.157,15.108c0.397,0.271,1.361,0.119,1.83-0.188c3.034-2.004,6.01-4.102,8.992-6.178
	C64.145,42.165,68.157,39.354,72.637,36.222z M42.648,50.904c-4.499,4.299-8.897,8.502-13.542,12.938c14.11,0,27.798,0,41.906,0
	c-4.701-4.479-9.084-8.657-13.541-12.905c-1.957,1.352-3.854,2.601-5.682,3.946c-1.215,0.896-2.268,0.902-3.483-0.014
	C46.543,53.541,44.692,52.328,42.648,50.904z M60.331,48.921c4.205,4.024,8.174,7.823,12.384,11.853c0-6.998,0-13.56,0-20.447
	C68.484,43.261,64.529,46.007,60.331,48.921z M27.284,60.889c4.357-4.16,8.355-7.979,12.514-11.954
	c-4.183-2.9-8.207-5.69-12.514-8.678C27.284,47.286,27.284,53.809,27.284,60.889z"/>
</svg>
