<?xml version="1.0" encoding="utf-8"?>
<!-- Generator: Adobe Illustrator 16.0.0, SVG Export Plug-In . SVG Version: 6.00 Build 0)  -->
<!DOCTYPE svg PUBLIC "-//W3C//DTD SVG 1.1//EN" "http://www.w3.org/Graphics/SVG/1.1/DTD/svg11.dtd">
<svg version="1.1" id="Layer_1" xmlns="http://www.w3.org/2000/svg" xmlns:xlink="http://www.w3.org/1999/xlink" x="0px" y="0px"
	 width="100px" height="100px" viewBox="0 0 100 100" enable-background="new 0 0 100 100" xml:space="preserve">
<g>
	<path fill="#009EDD" d="M49.698,99c-27.019,0-49-21.982-49-49c0-27.019,21.981-49,49-49c27.019,0,48.999,21.981,48.999,49
		C98.697,77.018,76.717,99,49.698,99z"/>
</g>
<path fill="#FFFFFF" d="M49.701,72.574c12.445,0,22.572-10.125,22.572-22.571c0-12.452-10.127-22.577-22.572-22.577
	S27.122,37.551,27.122,50.003C27.122,62.449,37.256,72.574,49.701,72.574z"/>
<g>
	<path fill="#009EDD" d="M41.38,60.979V39.02h4.13v8.701h8.377V39.02h4.129v21.96h-4.129v-9.542H45.51v9.542H41.38z"/>
</g>
</svg>
