<?xml version="1.0" encoding="utf-8"?>
<!-- Generator: Adobe Illustrator 16.0.0, SVG Export Plug-In . SVG Version: 6.00 Build 0)  -->
<!DOCTYPE svg PUBLIC "-//W3C//DTD SVG 1.1//EN" "http://www.w3.org/Graphics/SVG/1.1/DTD/svg11.dtd">
<svg version="1.1" id="Layer_1" xmlns="http://www.w3.org/2000/svg" xmlns:xlink="http://www.w3.org/1999/xlink" x="0px" y="0px"
	 width="100px" height="100px" viewBox="0 0 100 100" enable-background="new 0 0 100 100" xml:space="preserve">
<path fill="#009EDD" d="M50,1C22.982,1,1,22.981,1,50c0,27.02,21.982,49,49,49c27.02,0,49-21.98,49-49C99,22.981,77.02,1,50,1z"/>
<path fill="#FFFFFF" d="M49.918,75.948c-6.571-8.788-13.168-17.241-16.93-27.424c-2.732-7.396,0.226-16.072,6.894-21.024
	c6.126-4.553,14.056-4.601,20.121-0.124c6.81,5.024,9.709,13.797,7.04,21.3C64.646,55.408,57.195,67.333,49.918,75.948z
	 M49.849,54.244c6.667,0.07,12.081-5.239,12.112-11.873c0.03-6.509-5.177-11.93-11.646-12.121
	c-6.569-0.194-12.332,5.458-12.34,12.108C37.967,48.769,43.371,54.18,49.849,54.244z"/>
</svg>
