<?xml version="1.0" encoding="utf-8"?>
<!-- Generator: Adobe Illustrator 16.0.0, SVG Export Plug-In . SVG Version: 6.00 Build 0)  -->
<!DOCTYPE svg PUBLIC "-//W3C//DTD SVG 1.1//EN" "http://www.w3.org/Graphics/SVG/1.1/DTD/svg11.dtd">
<svg version="1.1" id="Layer_1" xmlns="http://www.w3.org/2000/svg" xmlns:xlink="http://www.w3.org/1999/xlink" x="0px" y="0px"
	 width="100px" height="100px" viewBox="0 0 100 100" enable-background="new 0 0 100 100" xml:space="preserve">
<path fill="#009EDD" d="M49,1C21.982,1,0,22.981,0,50c0,27.018,21.982,49,49,49c27.018,0,49-21.982,49-49C98,22.981,76.02,1,49,1z"
	/>
<g>
	<path fill="#FFFFFF" d="M78.896,60.779c-0.061-2.799-0.015-19.59-0.012-22.144c0.002-1.791-0.891-2.707-2.708-2.708
		c-12.14-0.007-24.278-0.008-36.418,0.001c-1.812,0.001-2.831,1.016-2.833,2.81c-0.007,7.494-0.005,14.989,0.007,22.483
		c0.002,1.826,0.993,2.846,2.79,2.846c12.14,0.011,24.278,0.012,36.417,0c1.771-0.002,2.865-1.256,2.771-3.043
		C78.907,60.941,78.902,60.859,78.896,60.779z M39.039,39.403c-0.01-1.006,0.319-1.369,1.347-1.367
		c11.68,0.026,23.359,0.026,35.039,0c1.043-0.003,1.354,0.389,1.337,1.38c-0.029,1.521-0.021,8.49-0.018,14.229
		c-0.225-0.285-0.664-0.328-1.313-0.324c-7.955,0.045-27.083,0.01-35.038,0.043c-0.966,0.004-1.381-0.168-1.365-1.268
		C39.094,47.865,39.078,43.634,39.039,39.403z M75.264,61.907c-11.588-0.015-23.175-0.025-34.762,0.015
		c-1.175,0.005-1.457-0.386-1.487-1.498c-0.03-1.16,0.417-1.341,1.438-1.336c8.374,0.035,27.813,0.02,36.293,0.02
		c-0.001,0.931-0.003,1.658-0.008,2.094C76.547,61.913,75.984,61.907,75.264,61.907z"/>
	<path fill="#FFFFFF" d="M35.189,47.588c0-2.726,0-2.757-2.772-2.813c-0.769-0.015-1.055-0.219-1.019-1.011
		c0.056-1.262,0.015-2.528,0.015-3.912c-0.274,0.152-0.405,0.192-0.49,0.277c-3.156,3.146-6.288,6.315-9.476,9.431
		c-0.679,0.662-0.282,0.965,0.162,1.408c2.964,2.95,5.913,5.913,8.88,8.858c0.231,0.23,0.401,0.656,0.923,0.469
		c0-0.681,0-1.368,0-2.056c0-2.698,0-2.743,2.659-2.785c0.964-0.015,1.145-0.415,1.13-1.253
		C35.162,51.999,35.189,49.793,35.189,47.588z"/>
	<path fill="#FFFFFF" d="M47.189,50.842c0.078,0.026,0.18,0.047,0.313,0.063c0.13,0.016,0.293,0.022,0.486,0.022
		c0.201,0,0.365-0.008,0.492-0.022c0.128-0.016,0.229-0.035,0.308-0.063c0.077-0.025,0.131-0.059,0.165-0.1
		c0.032-0.041,0.051-0.088,0.051-0.139v-3.171h0.828c0.655,0,1.225-0.077,1.709-0.23c0.482-0.154,0.893-0.378,1.225-0.673
		c0.332-0.294,0.586-0.656,0.76-1.086c0.176-0.431,0.264-0.924,0.264-1.482c0-0.404-0.059-0.769-0.171-1.094
		c-0.111-0.325-0.276-0.609-0.491-0.854c-0.215-0.242-0.475-0.443-0.777-0.603c-0.306-0.158-0.605-0.268-0.904-0.326
		c-0.295-0.06-0.551-0.098-0.764-0.115c-0.213-0.019-0.436-0.027-0.672-0.027h-2.343c-0.204,0-0.369,0.061-0.495,0.181
		s-0.188,0.301-0.188,0.541v8.939c0,0.051,0.015,0.098,0.046,0.139C47.059,50.783,47.114,50.816,47.189,50.842z M49.004,42.502
		h0.859c0.209,0,0.413,0.014,0.609,0.042c0.197,0.028,0.387,0.096,0.564,0.203c0.179,0.108,0.332,0.274,0.452,0.5
		c0.125,0.226,0.186,0.512,0.186,0.859c0,0.257-0.035,0.493-0.105,0.711c-0.073,0.218-0.178,0.404-0.316,0.561
		c-0.139,0.156-0.314,0.278-0.534,0.365c-0.216,0.087-0.486,0.13-0.809,0.13h-0.905V42.502z"/>
	<path fill="#FFFFFF" d="M53.404,50.542c-0.016,0.108,0.002,0.19,0.053,0.25c0.052,0.06,0.145,0.097,0.275,0.11
		c0.136,0.017,0.317,0.023,0.553,0.023c0.222,0,0.398-0.006,0.533-0.016c0.138-0.012,0.242-0.03,0.314-0.059
		c0.075-0.027,0.129-0.065,0.162-0.115c0.034-0.049,0.061-0.107,0.081-0.18l0.63-1.942h3.732l0.668,1.995
		c0.02,0.067,0.046,0.121,0.076,0.162c0.031,0.041,0.084,0.072,0.162,0.096c0.076,0.023,0.187,0.037,0.334,0.047
		c0.145,0.007,0.348,0.012,0.609,0.012c0.25,0,0.448-0.007,0.594-0.021c0.141-0.012,0.239-0.045,0.299-0.1
		c0.056-0.053,0.076-0.134,0.061-0.24c-0.016-0.107-0.055-0.253-0.114-0.438l-3.071-8.809c-0.031-0.097-0.069-0.174-0.111-0.23
		c-0.044-0.057-0.116-0.099-0.217-0.126c-0.1-0.029-0.238-0.047-0.418-0.055c-0.18-0.008-0.42-0.012-0.723-0.012
		c-0.261,0-0.472,0.004-0.629,0.012c-0.158,0.008-0.283,0.025-0.373,0.055c-0.09,0.027-0.154,0.068-0.195,0.122
		s-0.076,0.124-0.106,0.211L53.52,50.11C53.457,50.292,53.419,50.436,53.404,50.542z M57.857,42.84h0.008l1.404,4.224h-2.818
		L57.857,42.84z"/>
	<path fill="#FFFFFF" d="M61.805,41.695l2.719,5.414v3.495c0,0.051,0.017,0.098,0.047,0.139c0.029,0.041,0.086,0.074,0.164,0.1
		c0.08,0.026,0.185,0.047,0.312,0.063c0.129,0.016,0.292,0.022,0.491,0.022c0.195,0,0.357-0.008,0.488-0.022
		c0.131-0.016,0.234-0.035,0.311-0.063c0.077-0.025,0.135-0.059,0.165-0.1c0.034-0.041,0.051-0.088,0.051-0.139v-3.495l2.72-5.414
		c0.092-0.185,0.153-0.33,0.185-0.438c0.03-0.108,0.017-0.188-0.043-0.242c-0.06-0.053-0.17-0.087-0.33-0.1s-0.39-0.02-0.681-0.02
		c-0.221,0-0.396,0.006-0.528,0.016c-0.134,0.011-0.238,0.03-0.315,0.062c-0.076,0.031-0.134,0.07-0.173,0.119
		c-0.038,0.048-0.069,0.114-0.097,0.195l-1.09,2.427c-0.098,0.235-0.197,0.484-0.301,0.745c-0.102,0.262-0.201,0.53-0.299,0.807
		h-0.017c-0.106-0.286-0.213-0.561-0.317-0.822c-0.104-0.261-0.211-0.509-0.318-0.745l-1.105-2.441
		c-0.035-0.072-0.072-0.13-0.109-0.177c-0.039-0.046-0.101-0.083-0.183-0.111c-0.082-0.027-0.192-0.047-0.333-0.058
		c-0.142-0.01-0.331-0.016-0.566-0.016c-0.279,0-0.5,0.007-0.659,0.02c-0.158,0.013-0.269,0.047-0.325,0.1
		c-0.059,0.054-0.074,0.134-0.047,0.238C61.645,41.358,61.708,41.506,61.805,41.695z"/>
</g>
</svg>
