<?xml version="1.0" encoding="utf-8"?>
<!-- Generator: Adobe Illustrator 16.0.0, SVG Export Plug-In . SVG Version: 6.00 Build 0)  -->
<!DOCTYPE svg PUBLIC "-//W3C//DTD SVG 1.1//EN" "http://www.w3.org/Graphics/SVG/1.1/DTD/svg11.dtd">
<svg version="1.1" id="Layer_1" xmlns="http://www.w3.org/2000/svg" xmlns:xlink="http://www.w3.org/1999/xlink" x="0px" y="0px"
	 width="100px" height="100px" viewBox="0 0 100 100" enable-background="new 0 0 100 100" xml:space="preserve">
<path fill="#009EDD" d="M50,1C22.982,1,1,22.981,1,50c0,27.018,21.982,49,49,49c27.018,0,49-21.982,49-49C99,22.981,77.02,1,50,1z"
	/>
<g>
	<path fill="#FFFFFF" d="M77.157,47.65c-0.007-2.913-2.151-5.021-5.08-5.023c-9.272-0.003-18.548-0.005-27.824,0
		c-3.096,0.001-5.208,2.018-5.233,5.125c-0.047,5.871-0.047,11.744-0.007,17.615c0.02,3,2.186,5.051,5.189,5.054
		c4.616,0.003,9.235,0,13.853,0c0,0.001,0,0.004,0,0.005c4.655,0,9.313,0.006,13.973-0.002c2.992-0.006,5.13-2.113,5.135-5.099
		C77.175,59.434,77.172,53.541,77.157,47.65z M43.991,45.701c9.511-0.005,19.024-0.007,28.534-0.001
		c1.439,0,2.234,1.025,1.932,2.495c-10.749,0-21.506,0-32.261,0C41.794,46.874,42.626,45.701,43.991,45.701z M74.54,56.295
		c0,2.965,0.007,5.928,0,8.893c-0.003,1.478-0.687,2.164-2.149,2.164c-9.432,0.002-18.861,0-28.291-0.002
		c-1.264-0.002-2.012-0.721-2.017-1.992c-0.011-3.959,0.005-7.918-0.016-11.877c-0.002-0.517,0.227-0.574,0.647-0.574
		c6.741,0.009,13.487,0.007,20.229,0.007c3.404,0.002,6.806,0,10.207,0c0.434,0,0.865,0,1.39,0
		C74.54,54.109,74.54,55.204,74.54,56.295z"/>
	<path fill="#FFFFFF" d="M36.133,45.544c0.809-3.586,3.861-6.024,7.586-6.044c3.701-0.021,7.4-0.003,11.105-0.003
		c2.046,0,4.093,0,6.26,0c-0.189-0.396-0.32-0.68-0.459-0.962c-0.971-1.96-1.948-3.915-2.906-5.879
		c-1.408-2.88-4.199-3.861-7.09-2.439c-8.255,4.064-16.504,8.14-24.749,12.219c-2.867,1.417-3.816,4.189-2.405,7.061
		c2.592,5.28,5.206,10.549,7.836,15.81c0.26,0.521,0.639,1.023,1.071,1.414c1.29,1.155,2.797,1.559,4.565,1.146
		c-0.114-0.245-0.226-0.415-0.272-0.6c-0.251-1.035-0.688-2.072-0.699-3.111c-0.068-5.633-0.038-11.266-0.026-16.897
		C35.952,46.688,36.007,46.102,36.133,45.544z"/>
	<path fill="#FFFFFF" d="M52.707,59.027c-1.195-0.217-2.22,0.186-3.048,1.035c-1.562-1.386-3.424-1.433-4.706-0.164
		c-1.214,1.203-1.263,3.178-0.121,4.428c0.986,1.074,2.964,1.699,4.813-0.01c1.823,1.367,3.47,1.396,4.739,0.104
		c1.119-1.142,1.229-2.937,0.255-4.2C54.146,59.578,53.496,59.17,52.707,59.027z"/>
</g>
</svg>
