<?xml version="1.0" encoding="utf-8"?>
<!-- Generator: Adobe Illustrator 16.0.0, SVG Export Plug-In . SVG Version: 6.00 Build 0)  -->
<!DOCTYPE svg PUBLIC "-//W3C//DTD SVG 1.1//EN" "http://www.w3.org/Graphics/SVG/1.1/DTD/svg11.dtd">
<svg version="1.1" id="Layer_1" xmlns="http://www.w3.org/2000/svg" xmlns:xlink="http://www.w3.org/1999/xlink" x="0px" y="0px"
	 width="100px" height="100px" viewBox="0 0 100 100" enable-background="new 0 0 100 100" xml:space="preserve">
<g>
	<path fill="#009EDD" d="M49.698,99c-27.019,0-49-21.982-49-49c0-27.019,21.981-49,49-49c27.019,0,48.999,21.981,48.999,49
		C98.697,77.018,76.717,99,49.698,99z"/>
</g>
<path fill="#FFFFFF" d="M49.701,72.574c12.445,0,22.572-10.125,22.572-22.571c0-12.452-10.127-22.577-22.572-22.577
	S27.122,37.551,27.122,50.003C27.122,62.449,37.256,72.574,49.701,72.574z"/>
<g>
	<path fill="#009EDD" d="M42.842,60.117V39.883h6.956c2.023,0,3.445,0.212,4.268,0.636c0.824,0.424,1.443,1.023,1.861,1.798
		c0.418,0.775,0.627,1.75,0.627,2.926c0,2.261-0.713,3.983-2.137,5.168c-1.426,1.186-3.336,1.777-5.73,1.777H46.97v7.93H42.842z
		 M46.97,49.412h0.793c1.547,0,2.684-0.371,3.41-1.114c0.725-0.743,1.088-1.615,1.088-2.618c0-0.565-0.113-1.078-0.342-1.538
		c-0.23-0.46-0.584-0.822-1.063-1.087c-0.48-0.264-1.248-0.396-2.303-0.396H46.97V49.412z"/>
</g>
</svg>
