<?xml version="1.0" encoding="utf-8"?>
<!-- Generator: Adobe Illustrator 16.0.0, SVG Export Plug-In . SVG Version: 6.00 Build 0)  -->
<!DOCTYPE svg PUBLIC "-//W3C//DTD SVG 1.1//EN" "http://www.w3.org/Graphics/SVG/1.1/DTD/svg11.dtd">
<svg version="1.1" id="Layer_1" xmlns="http://www.w3.org/2000/svg" xmlns:xlink="http://www.w3.org/1999/xlink" x="0px" y="0px"
	 width="100px" height="100px" viewBox="0 0 100 100" enable-background="new 0 0 100 100" xml:space="preserve">
<g>
	<path fill="#009EDD" d="M49.698,99c-27.019,0-49-21.982-49-49c0-27.019,21.981-49,49-49c27.019,0,48.999,21.981,48.999,49
		C98.697,77.018,76.717,99,49.698,99z"/>
</g>
<path fill="#FFFFFF" d="M49.701,72.574c12.445,0,22.572-10.125,22.572-22.571c0-12.452-10.127-22.577-22.572-22.577
	S27.122,37.551,27.122,50.003C27.122,62.449,37.256,72.574,49.701,72.574z"/>
<g>
	<path fill="#009EDD" d="M34.448,49.97c0-0.462-0.003-0.922,0-1.383c0.004-0.559,0.272-0.833,0.823-0.839
		c0.407-0.004,0.813,0,1.219-0.001c0.479-0.001,0.817-0.211,0.997-0.661c0.486-1.219,0.973-2.44,1.455-3.661
		c0.171-0.431,0.084-0.818-0.239-1.148c-0.3-0.307-0.61-0.602-0.907-0.91c-0.381-0.395-0.378-0.765,0.005-1.149
		c0.665-0.669,1.332-1.338,2.004-2.004c0.371-0.369,0.751-0.371,1.123-0.011c0.276,0.268,0.542,0.546,0.818,0.814
		c0.364,0.354,0.736,0.417,1.204,0.215c1.379-0.59,2.757-1.184,4.139-1.769c0.501-0.212,0.757-0.567,0.736-1.121
		c-0.013-0.364-0.006-0.725-0.002-1.088c0.008-0.511,0.29-0.799,0.795-0.802c0.956-0.005,1.913-0.006,2.867,0
		c0.515,0.004,0.784,0.288,0.789,0.806c0.003,0.373,0,0.748,0.002,1.12c0.001,0.518,0.231,0.868,0.725,1.06
		c1.212,0.476,2.417,0.961,3.625,1.446c0.438,0.175,0.818,0.084,1.15-0.233c0.292-0.28,0.57-0.577,0.863-0.861
		c0.372-0.359,0.764-0.362,1.129-0.001c0.68,0.672,1.357,1.347,2.027,2.028c0.361,0.367,0.354,0.751-0.011,1.125
		c-0.251,0.26-0.513,0.513-0.768,0.771c-0.325,0.332-0.403,0.714-0.219,1.146c0.602,1.41,1.202,2.821,1.806,4.229
		c0.188,0.439,0.527,0.656,1.006,0.658c0.396,0.001,0.791-0.007,1.186,0.004c0.457,0.013,0.744,0.288,0.75,0.745
		c0.012,0.988,0.012,1.978,0,2.966c-0.008,0.453-0.306,0.72-0.763,0.724c-0.372,0.005-0.747-0.004-1.118,0.003
		c-0.524,0.01-0.885,0.234-1.083,0.746c-0.471,1.213-0.958,2.42-1.456,3.623c-0.201,0.489-0.112,0.9,0.248,1.264
		c0.27,0.272,0.556,0.531,0.823,0.807c0.39,0.406,0.384,0.773-0.019,1.176c-0.65,0.655-1.305,1.307-1.958,1.957
		c-0.415,0.414-0.806,0.402-1.216-0.023c-0.247-0.254-0.494-0.503-0.748-0.748c-0.34-0.33-0.736-0.41-1.178-0.223
		c-1.359,0.578-2.715,1.163-4.078,1.732c-0.488,0.203-0.719,0.551-0.724,1.063c-0.003,0.405,0.005,0.813-0.001,1.219
		c-0.007,0.472-0.286,0.761-0.762,0.767c-0.967,0.007-1.933,0.007-2.9,0c-0.494-0.005-0.776-0.289-0.787-0.778
		c-0.009-0.419-0.005-0.836-0.002-1.253c0.005-0.471-0.213-0.807-0.638-0.981c-1.255-0.513-2.517-1.014-3.779-1.51
		c-0.404-0.157-0.779-0.072-1.092,0.231c-0.308,0.299-0.604,0.607-0.911,0.908c-0.436,0.422-0.796,0.421-1.222-0.004
		c-0.646-0.643-1.292-1.289-1.936-1.936c-0.421-0.422-0.416-0.785,0.012-1.214c0.271-0.274,0.545-0.544,0.814-0.818
		c0.327-0.333,0.397-0.713,0.212-1.146c-0.587-1.379-1.171-2.759-1.754-4.141c-0.201-0.478-0.545-0.716-1.073-0.702
		c-0.417,0.012-0.835,0.018-1.252-0.008c-0.5-0.029-0.748-0.309-0.752-0.813C34.445,50.916,34.448,50.443,34.448,49.97z
		 M55.074,50.006c0.001-2.814-2.266-5.085-5.076-5.083c-2.797,0-5.073,2.267-5.077,5.055c-0.003,2.819,2.258,5.097,5.064,5.1
		C52.799,55.078,55.074,52.813,55.074,50.006z"/>
</g>
</svg>
