<?xml version="1.0" encoding="utf-8"?>
<!-- Generator: Adobe Illustrator 16.0.0, SVG Export Plug-In . SVG Version: 6.00 Build 0)  -->
<!DOCTYPE svg PUBLIC "-//W3C//DTD SVG 1.1//EN" "http://www.w3.org/Graphics/SVG/1.1/DTD/svg11.dtd">
<svg version="1.1" id="Layer_1" xmlns="http://www.w3.org/2000/svg" xmlns:xlink="http://www.w3.org/1999/xlink" x="0px" y="0px"
	 width="100px" height="100px" viewBox="0 0 100 100" enable-background="new 0 0 100 100" xml:space="preserve">
<path fill="#009EDD" d="M50,1C22.982,1,1,22.981,1,50c0,27.018,21.982,49,49,49c27.018,0,49-21.982,49-49C99,22.981,77.02,1,50,1z"
	/>
<g>
	<g>
		<path fill="#FFFFFF" d="M35.086,61.053c0.009,1.486,0.951,2.551,2.34,2.609c1.123,0.048,2.251,0.012,3.375,0.012
			c0.171-0.001,0.335,0.027,0.398-0.229c0.175-0.721-0.024-1.006-0.746-1.006c-0.131-0.002-0.265-0.002-0.396-0.002
			c-0.25-0.002-0.311-0.112-0.204-0.336c0.258-0.541,0.19-1.121,0.191-1.691c0.003-2.803,0.008-22.284-0.002-27.694
			c0-0.565,0.186-0.993,0.68-1.262c0.425-0.23,0.851-0.201,1.25,0.074c0.242,0.166,0.437,0.371,0.479,0.68
			c0.212,0.302,0.104,0.634,0.087,0.957c0,5.258,0.003,30.377,0,35.946c0,0.18,0,0.359,0,0.539c0.028,0.303,0.26,0.214,0.444,0.248
			c1.067,0.191,1.935-0.316,2.78-0.822c0.508-0.305,0.946-0.387,1.426-0.008c1.139,0.896,2.281,0.929,3.425,0.008
			c0.475-0.385,0.953-0.374,1.42,0.004c1.148,0.934,2.291,0.863,3.424-0.02c0.465-0.362,0.924-0.351,1.363,0.008
			c1.176,0.953,2.332,0.856,3.483-0.029c0.441-0.339,0.837-0.258,1.316-0.008c0.709,0.367,1.353,0.91,2.239,0.873
			c1.023-0.043,1.023-0.01,1.062-1.053l0.001-35.959c-0.002-0.173-0.004-0.347-0.006-0.522c-0.006-0.049-0.012-0.098-0.018-0.147
			c-0.285-1.395-1.172-2.134-2.599-2.135c-6.871-0.004-13.746,0.036-20.619-0.028c-1.813-0.016-2.911,1.221-2.892,2.896
			c0.068,5.369,0.033,24.485,0.024,28.131c0,0.772-0.578,1.347-1.267,1.353c-0.711,0.004-1.22-0.584-1.22-1.436
			c0.002-3.182,0.015-6.363,0.014-9.546c-0.001-5.235-0.002-10.472-0.029-15.708c-0.003-0.55,0.082-0.829,0.701-0.726
			c0.586,0.099,0.397-0.362,0.42-0.65c0.024-0.313,0.06-0.614-0.443-0.575c-0.616,0.048-1.237,0.019-1.855,0.023
			c-0.02,0.399-0.038,0.798-0.056,1.198L35.086,61.053z M62.98,68.332c-1.35-0.973-2.645-1.098-3.975-0.02
			c-0.324,0.264-0.65,0.227-0.947-0.014c-1.313-1.054-2.608-0.979-3.904,0.03c-0.271,0.211-0.551,0.229-0.834,0.006
			c-1.344-1.063-2.687-1.037-4.025,0.017c-0.257,0.2-0.517,0.207-0.773-0.002c-1.367-1.108-2.703-1.011-4.095,0.004
			c-0.597,0.436-0.66,0.356-0.66-0.357c0.004-5.328,0.009-10.657,0.012-15.984c-0.001-1.376-0.002-2.753-0.003-4.13
			c-0.065-5.514,0.093-11.029-0.089-16.576c0.211,0,0.563,0,0.915,0c5.816,0,11.63,0,17.446,0c1.213,0,1.619,0.406,1.619,1.626
			c0.002,11.674,0.002,23.349,0,35.022C63.666,68.711,63.611,68.787,62.98,68.332z"/>
		<path fill="#FFFFFF" d="M54.891,56.838c-0.678-0.451-1.377-0.88-2.016-1.381c-0.607-0.475-0.461-1.405,0.213-1.688
			c1.01-0.422,1.838,0.106,1.873,1.196c0.004,0.111-0.006,0.224,0.01,0.331c0.084,0.518,0.486,0.217,0.738,0.26
			c0.195,0.034,0.473,0.147,0.525-0.271c0.151-1.213-0.383-2.23-1.553-2.691c-0.357-0.141-0.361-0.303-0.277-0.582
			c-0.014-0.253-0.027-0.504-0.043-0.756c-0.328-0.017-0.658-0.018-0.986-0.054c-0.355-0.041-0.324,0.183-0.313,0.405
			c-0.015,0.18-0.027,0.356-0.039,0.535c0.178,0.297-0.01,0.348-0.25,0.434c-0.918,0.33-1.453,1.002-1.527,1.97
			c-0.07,0.915,0.355,1.608,1.119,2.108c0.701,0.459,1.391,0.934,2.094,1.391c0.424,0.277,0.566,0.658,0.453,1.139
			c-0.111,0.471-0.467,0.689-0.908,0.744c-1.029,0.129-1.66-0.378-1.508-1.371c0.043-0.291-0.008-0.57-0.398-0.477
			c-0.293,0.07-0.758-0.285-0.867,0.285c-0.201,1.045,0.355,2.197,1.328,2.568c0.48,0.184,0.617,0.44,0.535,0.875
			c-0.121,0.633,0.277,0.582,0.697,0.609c0.471,0.031,0.615-0.132,0.584-0.595c-0.02-0.271-0.148-0.589,0.264-0.79
			C56.68,60.029,56.787,58.098,54.891,56.838z"/>
		<path fill="#FFFFFF" d="M46.296,64.281c-0.43,0.029-0.74-0.002-0.689,0.604c0.04,0.462,0.06,0.783,0.666,0.622
			c0.548,0.194,0.623-0.109,0.633-0.599C46.919,64.436,46.809,64.246,46.296,64.281z"/>
		<path fill="#FFFFFF" d="M53.768,64.279c-0.436,0.035-0.723,0.022-0.684,0.617c0.031,0.479,0.088,0.766,0.67,0.612
			c0.457,0.138,0.646-0.02,0.627-0.545C54.363,64.52,54.354,64.23,53.768,64.279z"/>
		<path fill="#FFFFFF" d="M56.223,64.311c-0.461-0.092-0.68,0.021-0.666,0.562c0.016,0.485,0.086,0.719,0.646,0.678
			c0.424-0.03,0.697-0.021,0.656-0.592C56.828,64.484,56.795,64.167,56.223,64.311z"/>
		<path fill="#FFFFFF" d="M61.197,64.279c-0.459,0.027-0.719,0.088-0.586,0.643c-0.123,0.424-0.014,0.66,0.527,0.623
			c0.401-0.027,0.717,0.016,0.67-0.564C61.773,64.546,61.795,64.247,61.197,64.279z"/>
		<path fill="#FFFFFF" d="M58.695,64.279c-0.48,0.019-0.658,0.113-0.627,0.623c0.026,0.426,0.018,0.771,0.59,0.617
			c0.447,0.086,0.697,0.008,0.666-0.553C59.299,64.506,59.273,64.254,58.695,64.279z"/>
		<path fill="#FFFFFF" d="M51.311,64.287c-0.427,0.023-0.731,0-0.697,0.602c0.029,0.481,0.096,0.687,0.643,0.663
			c0.463-0.02,0.719-0.085,0.58-0.638C51.967,64.48,51.848,64.257,51.311,64.287z"/>
		<path fill="#FFFFFF" d="M48.812,64.285c-0.423,0.027-0.745-0.02-0.699,0.596c0.034,0.46,0.063,0.704,0.629,0.669
			c0.444-0.028,0.737-0.055,0.596-0.624C49.446,64.512,49.369,64.252,48.812,64.285z"/>
	</g>
	<path fill="#FFFFFF" d="M53.836,46.243c0,0.32-0.26,0.579-0.578,0.579h-7.073c-0.321,0-0.581-0.259-0.581-0.579l0,0
		c0-0.32,0.26-0.579,0.581-0.579h7.073C53.576,45.664,53.836,45.923,53.836,46.243L53.836,46.243z"/>
	<path fill="#FFFFFF" d="M61.73,46.243c0,0.32-0.258,0.579-0.578,0.579h-3.293c-0.319,0-0.578-0.259-0.578-0.579l0,0
		c0-0.32,0.259-0.579,0.578-0.579h3.293C61.473,45.664,61.73,45.923,61.73,46.243L61.73,46.243z"/>
	<path fill="#FFFFFF" d="M61.73,43.773c0,0.321-0.258,0.579-0.578,0.579h-3.293c-0.319,0-0.578-0.258-0.578-0.579l0,0
		c0-0.319,0.259-0.579,0.578-0.579h3.293C61.473,43.194,61.73,43.454,61.73,43.773L61.73,43.773z"/>
	<path fill="#FFFFFF" d="M61.73,41.243c0,0.319-0.258,0.579-0.578,0.579h-3.293c-0.319,0-0.578-0.259-0.578-0.579l0,0
		c0-0.32,0.259-0.579,0.578-0.579h3.293C61.473,40.665,61.73,40.923,61.73,41.243L61.73,41.243z"/>
	<path fill="#FFFFFF" d="M61.73,38.744c0,0.319-0.258,0.579-0.578,0.579h-3.293c-0.319,0-0.578-0.259-0.578-0.579l0,0
		c0-0.32,0.259-0.579,0.578-0.579h3.293C61.473,38.165,61.73,38.424,61.73,38.744L61.73,38.744z"/>
	<path fill="#FFFFFF" d="M50.055,33.867c0,0.319-0.26,0.579-0.579,0.579h-3.291c-0.321,0-0.581-0.259-0.581-0.579l0,0
		c0-0.32,0.26-0.58,0.581-0.58h3.291C49.795,33.287,50.055,33.546,50.055,33.867L50.055,33.867z"/>
	<path fill="#FFFFFF" d="M53.836,43.773c0,0.321-0.26,0.579-0.578,0.579h-7.073c-0.321,0-0.581-0.258-0.581-0.579l0,0
		c0-0.319,0.26-0.579,0.581-0.579h7.073C53.576,43.194,53.836,43.454,53.836,43.773L53.836,43.773z"/>
	<path fill="#FFFFFF" d="M53.836,41.243c0,0.319-0.26,0.579-0.578,0.579h-7.073c-0.321,0-0.581-0.259-0.581-0.579l0,0
		c0-0.32,0.26-0.579,0.581-0.579h7.073C53.576,40.665,53.836,40.923,53.836,41.243L53.836,41.243z"/>
	<path fill="#FFFFFF" d="M53.836,38.744c0,0.319-0.26,0.579-0.578,0.579h-7.073c-0.321,0-0.581-0.259-0.581-0.579l0,0
		c0-0.32,0.26-0.579,0.581-0.579h7.073C53.576,38.165,53.836,38.424,53.836,38.744L53.836,38.744z"/>
	<path fill="#FFFFFF" d="M61.73,36.335c0,0.32-0.258,0.58-0.578,0.58H46.185c-0.321,0-0.581-0.259-0.581-0.58l0,0
		c0-0.32,0.26-0.579,0.581-0.579h14.967C61.473,35.756,61.73,36.016,61.73,36.335L61.73,36.335z"/>
	<path fill="#FFFFFF" d="M61.73,48.681c0,0.32-0.258,0.579-0.578,0.579H46.185c-0.321,0-0.581-0.259-0.581-0.579l0,0
		c0-0.32,0.26-0.579,0.581-0.579h14.967C61.473,48.102,61.73,48.361,61.73,48.681L61.73,48.681z"/>
</g>
</svg>
